SplineFontDB: 3.0
FontName: Monda-Regular
FullName: Monda Regular
FamilyName: Monda-Regular
Weight: Regular
Copyright: Digitized data Copyright (c) 2012-2014, vernon adams.
Version: 2.0
ItalicAngle: 0
UnderlinePosition: 0
UnderlineWidth: 0
Ascent: 800
Descent: 200
UFOAscent: 991
UFODescent: -329
LayerCount: 2
Layer: 0 0 "Back"  1
Layer: 1 0 "Fore"  0
OS2Version: 0
OS2_WeightWidthSlopeOnly: 0
OS2_UseTypoMetrics: 0
CreationTime: 1397687283
ModificationTime: 1397689769
PfmFamily: 0
TTFWeight: 400
TTFWidth: 5
LineGap: 0
VLineGap: 0
OS2TypoAscent: 0
OS2TypoAOffset: 1
OS2TypoDescent: 0
OS2TypoDOffset: 1
OS2TypoLinegap: 0
OS2WinAscent: 0
OS2WinAOffset: 1
OS2WinDescent: 0
OS2WinDOffset: 1
HheadAscent: 0
HheadAOffset: 1
HheadDescent: 0
HheadDOffset: 1
OS2Vendor: 'NeWT'
Lookup: 258 0 0 "'kern' Horizontal Kerning in Latin lookup 0"  {"'kern' Horizontal Kerning in Latin lookup 0 subtable"  } ['kern' ('latn' <'dflt' > ) ]
DEI: 91125
LangName: 1033 "" "" "" "" "" "Version 2.0" "" "Monda is a trademark of Vernon Adams and may be registered in certain jurisdictions." "newtypography" "Vernon Adams" "" "newtypography.co.uk" "newtypography.co.uk" "Digitized data Copyright (c) 2012-2014, vernon adams.+AAoACgAA-This Font Software is licensed under the SIL Open Font License, Version 1.1.+AAoA-This license is copied below, and is also available with a FAQ at:+AAoA-http://scripts.sil.org/OFL+AAoA" "http://scripts.sil.org/OFL" "" "" "" "Monda-Regular" 
PickledData: "(dp1
S'public.glyphOrder'
p2
(S'A'
S'Aacute'
S'Abreve'
S'Acaron'
S'Acircumflex'
S'Adblgrave'
S'Adieresis'
S'Adotaccent'
S'Agrave'
S'Ainvertedbreve'
S'Amacron'
S'Aogonek'
S'Aring'
S'Aringacute'
S'Atilde'
S'AE'
S'AEacute'
S'AEmacron'
S'B'
S'Bdotaccent'
S'C'
S'Cacute'
S'Ccaron'
S'Ccedilla'
S'Ccircumflex'
S'Cdotaccent'
S'D'
S'DZ'
S'DZcaron'
S'Eth'
S'Dcaron'
S'Dcroat'
S'Ddotaccent'
S'Dz'
S'Dzcaron'
S'E'
S'Eacute'
S'Ebreve'
S'Ecaron'
S'uni0228'
S'Ecircumflex'
S'Edblgrave'
S'Edieresis'
S'Edotaccent'
S'Egrave'
S'Einvertedbreve'

StartChar: A
Encoding: 65 65 1
Width: 697
VWidth: 0
Flags: HW
PickledData: "(dp1
S'org.robofab.postScriptHintData'
p2
(dp3
s."
AnchorPoint: "top" 350 706 basechar 0
AnchorPoint: "ogonek" 627 0 basechar 0
LayerCount: 2
Fore
SplineSet
216 208 m 1
 351 594 l 1
 485 208 l 1
 216 208 l 1
42 0 m 1
 144 0 l 1
 192 138 l 1
 507 138 l 1
 555 0 l 1
 655 0 l 1
 392 706 l 1
 305 706 l 1
 42 0 l 1
EndSplineSet
EndChar

StartChar: AE
Encoding: 198 198 2
Width: 823
VWidth: 0
Flags: HW
PickledData: "(dp1
S'org.robofab.postScriptHintData'
p2
(dp3
s."
AnchorPoint: "top" 497 706 basechar 0
LayerCount: 2
Fore
SplineSet
201 204 m 1
 309 633 l 1
 427 633 l 1
 427 204 l 1
 201 204 l 1
48 1 m 1
 147 0 l 1
 183 138 l 1
 427 138 l 1
 427 0 l 1
 761 0 l 1
 761 73 l 1
 520 73 l 1
 520 324 l 1
 727 324 l 1
 727 397 l 1
 520 397 l 1
 520 633 l 1
 757 633 l 1
 757 706 l 1
 240 706 l 1
 48 1 l 1
EndSplineSet
EndChar

StartChar: B
Encoding: 66 66 19
Width: 693
VWidth: 0
Flags: HW
PickledData: "(dp1
S'org.robofab.postScriptHintData'
p2
(dp3
s."
AnchorPoint: "top" 340 706 basechar 0
LayerCount: 2
Fore
SplineSet
205 407 m 1
 205 632 l 1
 347 632 l 2
 466 632 499 613 499 511 c 0
 499 448 475 407 386 407 c 2
 205 407 l 1
205 73 m 1
 205 340 l 1
 400 340 l 2
 508 340 534 275 534 211 c 0
 534 96 485 73 376 73 c 2
 205 73 l 1
106 0 m 1
 384 0 l 2
 556 0 631 61 631 201 c 0
 631 291 591 358 508 377 c 1
 573 399 596 450 597 512 c 0
 597 635 558 706 362 706 c 2
 106 706 l 1
 106 0 l 1
EndSplineSet
EndChar

StartChar: C
Encoding: 67 67 21
Width: 710
VWidth: 0
Flags: HW
PickledData: "(dp1
S'org.robofab.postScriptHintData'
p2
(dp3
s."
AnchorPoint: "top" 374 706 basechar 0
AnchorPoint: "bot" 374 0 basechar 0
LayerCount: 2
Fore
SplineSet
372 -11 m 0
 597 -11 634 72 635 214 c 1
 635 219 l 1
 542 219 l 1
 542 207 l 1
 540 81 497 68 374 68 c 0
 249 68 188 97 188 222 c 2
 188 477 l 2
 188 602 247 638 371 638 c 0
 497 638 539 620 542 492 c 1
 542 479 l 1
 635 487 l 1
 635 493 l 1
 634 639 585 717 371 717 c 0
 134 717 89 608 89 459 c 2
 89 237 l 2
 89 90 136 -11 372 -11 c 0
EndSplineSet
EndChar

StartChar: D
Encoding: 68 68 28
Width: 743
VWidth: 0
Flags: HW
PickledData: "(dp1
S'org.robofab.postScriptHintData'
p2
(dp3
s."
AnchorPoint: "top" 350 706 basechar 0
AnchorPoint: "mid" 174 372 basechar 0
LayerCount: 2
Fore
SplineSet
106 0 m 1
 388 0 l 2
 567 0 654 82 654 235 c 2
 654 468 l 2
 654 603 583 706 387 706 c 2
 106 706 l 1
 106 0 l 1
205 73 m 1
 205 632 l 1
 378 632 l 2
 479 632 556 604 556 474 c 2
 556 226 l 2
 556 96 480 73 378 73 c 2
 205 73 l 1
EndSplineSet
EndChar

StartChar: Dcroat
Encoding: 272 272 32
Width: 743
VWidth: 0
Flags: HW
PickledData: "(dp1
S'org.robofab.postScriptHintData'
p2
(dp3
s."
LayerCount: 2
Fore
SplineSet
106 0 m 1
 388 0 l 2
 567 0 654 82 654 235 c 2
 654 468 l 2
 654 603 583 706 387 706 c 2
 106 706 l 1
 106 408 l 1
 10 408 l 1
 10 339 l 1
 106 339 l 1
 106 0 l 1
205 408 m 1
 205 632 l 1
 378 632 l 2
 479 632 556 604 556 474 c 2
 556 226 l 2
 556 96 480 73 378 73 c 2
 205 73 l 1
 205 339 l 1
 332 339 l 1
 332 408 l 1
 205 408 l 1
EndSplineSet
EndChar

StartChar: uni0394
Encoding: 916 916 34
Width: 697
VWidth: 0
Flags: HW
PickledData: "(dp1
S'org.robofab.postScriptHintData'
p2
(dp3
s."
LayerCount: 2
Fore
SplineSet
191 70 m 1
 351 584 l 1
 506 70 l 1
 191 70 l 1
79 0 m 1
 615 0 l 1
 392 706 l 1
 305 706 l 1
 79 0 l 1
EndSplineSet
EndChar

StartChar: E
Encoding: 69 69 37
Width: 612
VWidth: 0
Flags: HW
PickledData: "(dp1
S'org.robofab.postScriptHintData'
p2
(dp3
s."
AnchorPoint: "top" 330 706 basechar 0
AnchorPoint: "ogonek" 412 0 basechar 0
AnchorPoint: "bot" 307 0 basechar 0
LayerCount: 2
Fore
SplineSet
106 0 m 1
 553 0 l 1
 553 73 l 1
 205 73 l 1
 205 327 l 1
 507 327 l 1
 507 400 l 1
 205 400 l 1
 205 633 l 1
 547 633 l 1
 547 706 l 1
 106 706 l 1
 106 0 l 1
EndSplineSet
EndChar

StartChar: Eng
Encoding: 330 330 48
Width: 772
VWidth: 0
Flags: HW
PickledData: "(dp1
S'org.robofab.postScriptHintData'
p2
(dp3
s."
LayerCount: 2
Fore
SplineSet
401 -182 m 1
 563 -182 669 -126 669 60 c 2
 669 706 l 1
 583 706 l 1
 583 229 l 1
 178 706 l 1
 104 706 l 1
 104 0 l 1
 190 0 l 1
 190 539 l 1
 577 93 l 1
 577 56 l 2
 577 -96 506 -102 387 -113 c 1
 401 -182 l 1
EndSplineSet
EndChar

StartChar: Eth
Encoding: 208 208 50
Width: 743
VWidth: 0
Flags: HW
PickledData: "(dp1
S'org.robofab.postScriptHintData'
p2
(dp3
s."
LayerCount: 2
Fore
SplineSet
205 339 m 1
 332 339 l 1
 332 408 l 1
 205 408 l 1
 205 632 l 1
 378 632 l 2
 479 632 556 604 556 474 c 2
 556 226 l 2
 556 96 480 73 378 73 c 2
 205 73 l 1
 205 339 l 1
106 0 m 1
 388 0 l 2
 567 0 654 82 654 235 c 2
 654 468 l 2
 654 603 583 706 387 706 c 2
 106 706 l 1
 106 408 l 1
 10 408 l 1
 10 339 l 1
 106 339 l 1
 106 0 l 1
EndSplineSet
EndChar

StartChar: Euro
Encoding: 8364 8364 52
Width: 712
VWidth: 0
Flags: HW
PickledData: "(dp1
S'org.robofab.postScriptHintData'
p2
(dp3
s."
LayerCount: 2
Fore
SplineSet
363 247 m 1
 363 312 l 1
 188 312 l 1
 188 400 l 1
 363 400 l 1
 363 465 l 1
 188 465 l 1
 188 477 l 2
 188 602 247 638 371 638 c 0
 497 638 539 620 542 492 c 1
 542 479 l 1
 635 487 l 1
 635 493 l 1
 634 639 585 717 371 717 c 0
 137.192844818 717 90.2224583712 610.917095662 89 465 c 1
 0 465 l 1
 0 400 l 1
 89 400 l 1
 89 312 l 1
 0 312 l 1
 0 247 l 1
 89 247 l 1
 89 237 l 2
 89 90 136 -11 372 -11 c 0
 597 -11 634 72 635 214 c 1
 635 219 l 1
 542 219 l 1
 542 207 l 1
 540 81 497 68 374 68 c 0
 249 68 188 97 188 222 c 2
 188 247 l 1
 363 247 l 1
EndSplineSet
EndChar

StartChar: F
Encoding: 70 70 53
Width: 565
VWidth: 0
Flags: HW
PickledData: "(dp1
S'org.robofab.postScriptHintData'
p2
(dp3
s."
AnchorPoint: "top" 320 706 basechar 0
LayerCount: 2
Fore
SplineSet
106 0 m 1
 205 0 l 1
 205 324 l 1
 490 324 l 1
 490 397 l 1
 205 397 l 1
 205 633 l 1
 507 633 l 1
 507 706 l 1
 106 706 l 1
 106 0 l 1
EndSplineSet
EndChar

StartChar: G
Encoding: 71 71 55
Width: 759
VWidth: 0
Flags: HW
PickledData: "(dp1
S'org.robofab.postScriptHintData'
p2
(dp3
s."
AnchorPoint: "top" 379 706 basechar 0
AnchorPoint: "bot" 380 0 basechar 0
LayerCount: 2
Fore
SplineSet
385 638 m 0
 523 638 566 620 566 489 c 1
 656 496 l 1
 656 509 l 1
 653 634 610 717 385 717 c 0
 148 717 91 608 91 459 c 2
 91 237 l 2
 91 90 149 -11 385 -11 c 0
 525 -11 586 43 598 120 c 1
 610 0 l 1
 664 0 l 1
 664 359 l 1
 398 359 l 1
 398 287 l 1
 565 287 l 1
 565 222 l 2
 565 97 511 68 385 68 c 0
 260 68 189 97 189 222 c 2
 189 477 l 2
 189 602 261 638 385 638 c 0
EndSplineSet
EndChar

StartChar: H
Encoding: 72 72 62
Width: 746
VWidth: 0
Flags: HW
PickledData: "(dp1
S'org.robofab.postScriptHintData'
p2
(dp3
s."
AnchorPoint: "top" 368 706 basechar 0
AnchorPoint: "center" 373 0 basechar 0
LayerCount: 2
Fore
SplineSet
104 0 m 1
 202 0 l 1
 202 322 l 1
 544 322 l 1
 544 0 l 1
 643 0 l 1
 643 706 l 1
 544 706 l 1
 544 394 l 1
 202 394 l 1
 202 706 l 1
 104 706 l 1
 104 0 l 1
EndSplineSet
EndChar

StartChar: Hbar
Encoding: 294 294 63
Width: 750
VWidth: 0
Flags: HW
PickledData: "(dp1
S'org.robofab.postScriptHintData'
p2
(dp3
s."
LayerCount: 2
Fore
SplineSet
202 518 m 1
 544 518 l 1
 544 394 l 1
 202 394 l 1
 202 518 l 1
104 0 m 1
 202 0 l 1
 202 322 l 1
 544 322 l 1
 544 0 l 1
 643 0 l 1
 643 518 l 1
 680 518 l 1
 680 578 l 1
 643 578 l 1
 643 706 l 1
 544 706 l 1
 544 578 l 1
 202 578 l 1
 202 706 l 1
 104 706 l 1
 104 578 l 1
 70 578 l 1
 70 518 l 1
 104 518 l 1
 104 0 l 1
EndSplineSet
EndChar

StartChar: I
Encoding: 73 73 65
Width: 552
VWidth: 0
Flags: HW
PickledData: "(dp1
S'org.robofab.postScriptHintData'
p2
(dp3
s."
AnchorPoint: "top" 277 706 basechar 0
AnchorPoint: "ogonek" 313 0 basechar 0
LayerCount: 2
Fore
SplineSet
93 0 m 1
 460 0 l 1
 460 73 l 1
 326 73 l 1
 326 633 l 1
 460 633 l 1
 460 706 l 1
 93 706 l 1
 93 633 l 1
 228 633 l 1
 228 73 l 1
 93 73 l 1
 93 0 l 1
EndSplineSet
EndChar

StartChar: J
Encoding: 74 74 79
Width: 588
VWidth: 0
Flags: HW
PickledData: "(dp1
S'org.robofab.postScriptHintData'
p2
(dp3
s."
AnchorPoint: "top" 315 706 basechar 0
LayerCount: 2
Fore
SplineSet
255 -8 m 0
 414 -8 482 76 482 210 c 2
 482 706 l 1
 114 706 l 1
 114 625 l 1
 384 625 l 1
 384 212 l 2
 384 121 345 72 252 72 c 0
 181 72 100 99 77 110 c 1
 50 34 l 1
 82 17 173 -8 255 -8 c 0
EndSplineSet
EndChar

StartChar: K
Encoding: 75 75 81
Width: 692
VWidth: 0
Flags: HW
PickledData: "(dp1
S'org.robofab.postScriptHintData'
p2
(dp3
s."
AnchorPoint: "top" 358 706 basechar 0
AnchorPoint: "bot" 346 0 basechar 0
LayerCount: 2
Fore
SplineSet
106 0 m 1
 205 0 l 1
 205 229 l 1
 311 337 l 1
 550 0 l 1
 659 0 l 1
 380 390 l 1
 645 706 l 1
 539 706 l 1
 428 578 313 453 205 321 c 1
 205 706 l 1
 106 706 l 1
 106 0 l 1
EndSplineSet
EndChar

StartChar: L
Encoding: 76 76 84
Width: 559
VWidth: 0
Flags: HW
PickledData: "(dp1
S'org.robofab.postScriptHintData'
p2
(dp3
s."
AnchorPoint: "mid" 150 354 basechar 0
AnchorPoint: "top" 291 706 basechar 0
AnchorPoint: "bot" 304 0 basechar 0
LayerCount: 2
Fore
SplineSet
106 0 m 1
 521 0 l 1
 521 76 l 1
 205 76 l 1
 205 706 l 1
 106 706 l 1
 106 0 l 1
EndSplineSet
EndChar

StartChar: Lslash
Encoding: 321 321 91
Width: 559
VWidth: 0
Flags: HW
PickledData: "(dp1
S'org.robofab.postScriptHintData'
p2
(dp3
s."
LayerCount: 2
Fore
SplineSet
106 0 m 1
 521 0 l 1
 521 76 l 1
 205 76 l 1
 205 410.87012987 l 1
 333 489 l 1
 333 550 l 1
 205 471.454545455 l 1
 205 706 l 1
 106 706 l 1
 106 410.704545455 l 1
 25 361 l 1
 25 301 l 1
 106 350.441558442 l 1
 106 0 l 1
EndSplineSet
EndChar

StartChar: M
Encoding: 77 77 92
Width: 868
VWidth: 0
Flags: HW
PickledData: "(dp1
S'org.robofab.postScriptHintData'
p2
(dp3
s."
AnchorPoint: "top" 433 706 basechar 0
LayerCount: 2
Fore
SplineSet
106 0 m 1
 200 0 l 1
 200 545 l 1
 398 224 l 1
 471 224 l 1
 669 547 l 1
 669 0 l 1
 762 0 l 1
 762 706 l 1
 675 706 l 1
 435 312 l 1
 197 706 l 1
 106 706 l 1
 106 0 l 1
EndSplineSet
EndChar

StartChar: N
Encoding: 78 78 94
Width: 778
VWidth: 0
Flags: HW
PickledData: "(dp1
S'org.robofab.postScriptHintData'
p2
(dp3
s."
AnchorPoint: "top" 389 706 basechar 0
AnchorPoint: "bot" 389 0 basechar 0
LayerCount: 2
Fore
SplineSet
106 0 m 1
 193 0 l 1
 193 539 l 1
 584 0 l 1
 672 0 l 1
 672 706 l 1
 585 706 l 1
 585 142 l 1
 181 706 l 1
 106 706 l 1
 106 0 l 1
EndSplineSet
EndChar

StartChar: O
Encoding: 79 79 102
Width: 754
VWidth: 0
Flags: HW
PickledData: "(dp1
S'org.robofab.postScriptHintData'
p2
(dp3
s."
AnchorPoint: "top" 382 706 basechar 0
AnchorPoint: "ogonek" 399 0 basechar 0
AnchorPoint: "bot" 382 0 basechar 0
LayerCount: 2
Fore
SplineSet
382 -11 m 0
 609 -11 664 99 664 244 c 2
 664 453 l 2
 664 602 610 717 382 717 c 0
 145 717 91 608 91 459 c 2
 91 237 l 2
 91 90 146 -11 382 -11 c 0
382 68 m 0
 257 68 189 97 189 222 c 2
 189 478 l 2
 189 603 258 638 382 638 c 0
 507 638 566 603 566 478 c 2
 566 222 l 2
 566 97 508 68 382 68 c 0
EndSplineSet
EndChar

StartChar: OE
Encoding: 338 338 103
Width: 760
VWidth: 0
Flags: HW
PickledData: "(dp1
S'org.robofab.postScriptHintData'
p2
(dp3
s."
AnchorPoint: "top" 380 0 basechar 0
LayerCount: 2
Fore
SplineSet
374 73 m 2
 252 73 188 110 188 234 c 2
 188 466 l 2
 188 590 252 632 373 632 c 2
 378 632 l 1
 378 73 l 1
 374 73 l 2
378 0 m 2
 683 0 l 1
 683 73 l 1
 477 73 l 1
 477 324 l 1
 649 324 l 1
 649 397 l 1
 477 397 l 1
 477 633 l 1
 679 633 l 1
 679 706 l 1
 378 706 l 2
 141 706 89 597 89 448 c 2
 89 249 l 2
 89 102 142 0 378 0 c 2
EndSplineSet
EndChar

StartChar: uni03A9
Encoding: 937 937 114
Width: 774
VWidth: 0
Flags: HW
PickledData: "(dp1
S'org.robofab.postScriptHintData'
p2
(dp3
s."
LayerCount: 2
Fore
SplineSet
387 717 m 0
 212 717 91 670 91 350 c 0
 91 179 145 107 221 69 c 1
 101 69 l 1
 101 0 l 1
 340 0 l 1
 340 69 l 1
 228 110 188 175 188 359 c 0
 188 609 260 637 387 637 c 0
 514 637 586 609 586 359 c 0
 586 175 546 110 434 69 c 1
 434 0 l 1
 673 0 l 1
 673 69 l 1
 554 69 l 1
 630 107 684 179 684 350 c 0
 684 670 562 717 387 717 c 0
EndSplineSet
EndChar

StartChar: Oslash
Encoding: 216 216 116
Width: 754
VWidth: 0
Flags: HW
PickledData: "(dp1
S'org.robofab.postScriptHintData'
p2
(dp3
s."
AnchorPoint: "top" 386 706 basechar 0
LayerCount: 2
Fore
SplineSet
382 -11 m 0
 609 -11 664 99 664 244 c 2
 664 453 l 2
 664 559.759636469 636.27730828 649.064244819 536.690769137 691.118544948 c 1
 574 792 l 1
 524 810 l 1
 485.896184795 706.970046501 l 1
 456.116115606 713.514196438 421.695143976 717 382 717 c 0
 145 717 91 608 91 459 c 2
 91 237 l 2
 91 129.633472779 120.340386608 46.8061779946 228.114802691 9.94788038925 c 1
 193 -85 l 1
 243 -103 l 1
 279.948067807 -3.09510366388 l 1
 309.468823949 -8.28419824649 343.300946047 -11 382 -11 c 0
508.061364034 613.706709398 m 1
 547.109840761 590.643903058 566 548.729700101 566 478 c 2
 566 222 l 2
 566 97 508 68 382 68 c 0
 354.566833166 68 329.87907322 69.3967859606 308.052996268 72.8985850744 c 1
 508.061364034 613.706709398 l 1
458.071492015 631.734094724 m 1
 256.854679364 87.6584230544 l 1
 212.35632585 108.456704847 189 148.741534176 189 222 c 2
 189 478 l 2
 189 603 258 638 382 638 c 0
 410.842370905 638 436.170870724 636.136583515 458.071492015 631.734094724 c 1
EndSplineSet
EndChar

StartChar: P
Encoding: 80 80 119
Width: 647
VWidth: 0
Flags: HW
PickledData: "(dp1
S'org.robofab.postScriptHintData'
p2
(dp3
s."
AnchorPoint: "top" 350 706 basechar 0
LayerCount: 2
Fore
SplineSet
205 333 m 1
 205 631 l 1
 392 631 l 2
 480 631 486 546 486 477 c 0
 486 404 474 333 389 333 c 2
 205 333 l 1
106 0 m 1
 205 0 l 1
 205 258 l 1
 387 258 l 2
 507 258 585 315 585 484 c 0
 585 645 508 706 389 706 c 2
 106 706 l 1
 106 0 l 1
EndSplineSet
EndChar

StartChar: Q
Encoding: 81 81 121
Width: 752
VWidth: 0
Flags: HW
PickledData: "(dp1
S'org.robofab.postScriptHintData'
p2
(dp3
s."
LayerCount: 2
Fore
SplineSet
382 68 m 0
 257 68 189 97 189 222 c 2
 189 478 l 2
 189 603 258 638 382 638 c 0
 507 638 566 603 566 478 c 2
 566 222 l 2
 566 97 508 68 382 68 c 0
461 -188 m 1
 530 -150 l 1
 437 -8 l 1
 618 9 664 112 664 244 c 2
 664 453 l 2
 664 602 610 717 382 717 c 0
 145 717 91 608 91 459 c 2
 91 237 l 2
 91 97 141 -1 349 -10 c 1
 461 -188 l 1
EndSplineSet
EndChar

StartChar: R
Encoding: 82 82 122
Width: 714
VWidth: 0
Flags: HW
PickledData: "(dp1
S'org.robofab.postScriptHintData'
p2
(dp3
s."
AnchorPoint: "top" 350 706 basechar 0
AnchorPoint: "bot" 357 0 basechar 0
LayerCount: 2
Fore
SplineSet
205 367 m 1
 205 631 l 1
 424 631 l 2
 512 631 520 556 520 488 c 0
 520 420 498 367 413 367 c 2
 205 367 l 1
106 0 m 1
 205 0 l 1
 205 292 l 1
 205 292 423 293 428 293 c 1
 568 0 l 1
 669 0 l 1
 519 311 l 1
 578 336 619 383 619 497 c 0
 619 655 540 706 421 706 c 2
 106 706 l 1
 106 0 l 1
EndSplineSet
EndChar

StartChar: S
Encoding: 83 83 128
Width: 636
VWidth: 0
Flags: HW
PickledData: "(dp1
S'org.robofab.postScriptHintData'
p2
(dp3
s."
AnchorPoint: "top" 330 706 basechar 0
AnchorPoint: "bot" 323 0 basechar 0
LayerCount: 2
Fore
SplineSet
337 -11 m 0
 501 -11 568 68 568 198 c 0
 568 305 525 351 429 383 c 2
 251 443 l 2
 191 463 179 488 179 531 c 0
 179 538 180 547 180 555 c 0
 184 615 240 638 337 638 c 0
 429 638 491 614 533 591 c 1
 557 667 l 1
 512 695 441 717 320 717 c 0
 185 717 83 667 83 532 c 0
 83 436 123 391 221 359 c 2
 392 303 l 2
 464 280 478 253 478 213 c 0
 478 111 450 68 335 68 c 0
 249 68 159 98 105 130 c 1
 70 55 l 1
 144 12 232 -11 337 -11 c 0
EndSplineSet
EndChar

StartChar: Sigma
Encoding: 931 931 136
Width: 564
VWidth: 0
Flags: HW
PickledData: "(dp1
S'org.robofab.postScriptHintData'
p2
(dp3
s."
LayerCount: 2
Fore
SplineSet
525 0 m 1
 525 79 l 1
 157 79 l 1
 379 360 l 1
 379 394 l 1
 155 628 l 1
 525 628 l 1
 525 706 l 1
 55 706 l 1
 55 634 l 1
 292 372 l 1
 55 76 l 1
 55 0 l 1
 525 0 l 1
EndSplineSet
EndChar

StartChar: T
Encoding: 84 84 137
Width: 587
VWidth: 0
Flags: HW
PickledData: "(dp1
S'org.robofab.postScriptHintData'
p2
(dp3
s."
AnchorPoint: "center" 294 0 basechar 0
AnchorPoint: "top" 300 706 basechar 0
AnchorPoint: "mid" 294 368 basechar 0
AnchorPoint: "bot" 294 0 basechar 0
LayerCount: 2
Fore
SplineSet
245 0 m 1
 343 0 l 1
 343 625 l 1
 547 625 l 1
 547 706 l 1
 41 706 l 1
 41 625 l 1
 245 625 l 1
 245 0 l 1
EndSplineSet
EndChar

StartChar: Tbar
Encoding: 358 358 138
Width: 587
VWidth: 0
Flags: HW
PickledData: "(dp1
S'org.robofab.postScriptHintData'
p2
(dp3
s."
LayerCount: 2
Fore
SplineSet
245 0 m 1
 343 0 l 1
 343 332 l 1
 420 332 l 1
 420 404 l 1
 343 404 l 1
 343 625 l 1
 547 625 l 1
 547 706 l 1
 41 706 l 1
 41 625 l 1
 245 625 l 1
 245 404 l 1
 162 404 l 1
 162 332 l 1
 245 332 l 1
 245 0 l 1
EndSplineSet
EndChar

StartChar: Thorn
Encoding: 222 222 142
Width: 644
VWidth: 0
Flags: HW
PickledData: "(dp1
S'org.robofab.postScriptHintData'
p2
(dp3
s."
LayerCount: 2
Fore
SplineSet
202 236 m 1
 202 515 l 1
 388 515 l 2
 476 515 483 440 483 371 c 0
 483 298 471 236 386 236 c 2
 202 236 l 1
104 0 m 1
 202 0 l 1
 202 162 l 1
 384 162 l 2
 504 162 582 208 582 377 c 0
 582 538 504 590 385 590 c 2
 202 590 l 1
 202 706 l 1
 104 706 l 1
 104 0 l 1
EndSplineSet
EndChar

StartChar: U
Encoding: 85 85 143
Width: 750
VWidth: 0
Flags: HW
PickledData: "(dp1
S'org.robofab.postScriptHintData'
p2
(dp3
s."
AnchorPoint: "top" 380 706 basechar 0
AnchorPoint: "ogonek" 411 0 basechar 0
LayerCount: 2
Fore
SplineSet
380 -11 m 0
 601 -11 653 100 653 231 c 2
 653 706 l 1
 555 706 l 1
 555 221 l 2
 555 91 479 68 380 68 c 0
 282 68 196 91 196 221 c 2
 196 706 l 1
 98 706 l 1
 98 231 l 2
 98 99 149 -11 380 -11 c 0
EndSplineSet
EndChar

StartChar: V
Encoding: 86 86 157
Width: 676
VWidth: 0
Flags: HW
PickledData: "(dp1
S'org.robofab.postScriptHintData'
p2
(dp3
s."
LayerCount: 2
Fore
SplineSet
294 0 m 1
 380 0 l 1
 635 706 l 1
 533 706 l 1
 338 144 l 1
 143 706 l 1
 42 706 l 1
 294 0 l 1
EndSplineSet
EndChar

StartChar: W
Encoding: 87 87 158
Width: 1000
VWidth: 0
Flags: HW
PickledData: "(dp1
S'org.robofab.postScriptHintData'
p2
(dp3
s."
AnchorPoint: "top" 506 706 basechar 0
LayerCount: 2
Fore
SplineSet
255 0 m 1
 329 0 l 1
 506 602 l 1
 679 0 l 1
 753 0 l 1
 945 706 l 1
 856 706 l 1
 714 169 l 1
 553 706 l 1
 448 706 l 1
 294 169 l 1
 145 706 l 1
 55 706 l 1
 255 0 l 1
EndSplineSet
EndChar

StartChar: X
Encoding: 88 88 163
Width: 652
VWidth: 0
Flags: HW
PickledData: "(dp1
S'org.robofab.postScriptHintData'
p2
(dp3
s."
LayerCount: 2
Fore
SplineSet
46 0 m 1
 149 0 l 1
 326 277 l 1
 500 0 l 1
 606 0 l 1
 377 358 l 1
 599 706 l 1
 493 706 l 1
 327 438 l 1
 156 706 l 1
 57 706 l 1
 276 357 l 1
 46 0 l 1
EndSplineSet
EndChar

StartChar: Y
Encoding: 89 89 164
Width: 643
VWidth: 0
Flags: HW
PickledData: "(dp1
S'org.robofab.postScriptHintData'
p2
(dp3
s."
AnchorPoint: "top" 332 706 basechar 0
LayerCount: 2
Fore
SplineSet
273 0 m 1
 372 0 l 1
 372 277 l 1
 620 706 l 1
 519 706 l 1
 323 363 l 1
 127 706 l 1
 23 706 l 1
 273 277 l 1
 273 0 l 1
EndSplineSet
EndChar

StartChar: Z
Encoding: 90 90 171
Width: 606
VWidth: 0
Flags: HW
PickledData: "(dp1
S'org.robofab.postScriptHintData'
p2
(dp3
s."
AnchorPoint: "top" 324 706 basechar 0
LayerCount: 2
Fore
SplineSet
88 0 m 1
 535 0 l 1
 535 81 l 1
 196 81 l 1
 529 632 l 1
 529 706 l 1
 103 706 l 1
 103 625 l 1
 421 625 l 1
 88 73 l 1
 88 0 l 1
EndSplineSet
EndChar

StartChar: a
Encoding: 97 97 175
Width: 572
VWidth: 0
Flags: HW
PickledData: "(dp1
S'org.robofab.postScriptHintData'
p2
(dp3
sS'com.typemytype.robofont.layerData'
p4
(dp5
s."
AnchorPoint: "top" 285 518 basechar 0
AnchorPoint: "ogonek" 491 5 basechar 0
LayerCount: 2
Fore
SplineSet
238 58 m 0
 174 58 158 77 158 133 c 0
 158 176 188 198 265 228 c 2
 381 272 l 1
 381 145 l 1
 366 97 293 58 238 58 c 0
70 131 m 0
 70 46 111 -11 220 -11 c 0
 315 -11 366 38 389 73 c 1
 405 24 429 -4 498 -4 c 2
 517 -4 l 1
 527 66 l 1
 483 66 473 76 473 131 c 2
 473 352 l 2
 473 458 426 527 289 527 c 0
 153 527 85 482 85 380 c 2
 85 357 l 1
 173 357 l 1
 173 380 l 2
 173 422 182 457 286 457 c 0
 369 457 381 422 381 380 c 0
 381 345 376 333 355 326 c 2
 247 286 l 1
 109 236 70 201 70 131 c 0
EndSplineSet
EndChar

StartChar: acute
Encoding: 180 180 180
Width: 300
VWidth: 0
Flags: HW
PickledData: "(dp1
S'org.robofab.postScriptHintData'
p2
(dp3
s."
AnchorPoint: "top" 124 518 mark 0
LayerCount: 2
Fore
SplineSet
100 588 m 1
 162 588 l 1
 277 774 l 1
 167 774 l 1
 100 588 l 1
EndSplineSet
EndChar

StartChar: ae
Encoding: 230 230 184
Width: 850
VWidth: 0
Flags: HW
PickledData: "(dp1
S'org.robofab.postScriptHintData'
p2
(dp3
s."
AnchorPoint: "top" 438 518 basechar 0
LayerCount: 2
Fore
SplineSet
473 309 m 1
 473 371 l 2
 473 435 511 458 584 458 c 0
 655 458 702 442 702 380 c 2
 702 309 l 1
 473 309 l 1
245 59 m 0
 191 59 152 81 152 139 c 0
 152 185 200 198 274 219 c 0
 350 240 381 265 381 275 c 2
 381 136 l 1
 366 88 300 59 245 59 c 0
229 -11 m 0
 345 -11 394 33 419 87 c 1
 440 37 487 -11 581 -11 c 0
 723 -11 773 29 783 155 c 1
 700 155 l 1
 694 66 662 59 581 59 c 0
 509 59 473 91 473 160 c 2
 473 250 l 1
 786 250 l 1
 786 370 l 2
 786 468 719 527 584 527 c 0
 513 527 463 506 433 458 c 1
 415 505 355 527 288 527 c 0
 152 527 84 483 84 371 c 2
 84 357 l 1
 172 357 l 1
 172 370 l 2
 172 418 179 457 283 457 c 0
 377 457 382 415 382 377 c 0
 382 325 368 306 258 281 c 0
 100 245 64 206 64 138 c 0
 64 58 119 -11 229 -11 c 0
EndSplineSet
EndChar

StartChar: ampersand
Encoding: 38 38 190
Width: 732
VWidth: 0
Flags: HW
PickledData: "(dp1
S'org.robofab.postScriptHintData'
p2
(dp3
s."
LayerCount: 2
Fore
SplineSet
352 62 m 0
 227 62 185 116 185 217 c 0
 185 277 190 332 263 353 c 1
 519 112 l 1
 494 66 443 62 352 62 c 0
352 -12 m 0
 476 -12 542 14 579 56 c 1
 648 -9 l 1
 699 46 l 1
 614 127 l 1
 622 162 623 202 623 244 c 2
 623 380 l 1
 538 380 l 1
 538 222 l 2
 538 214 537 207 537 200 c 1
 282 443 l 1
 238 489 222 512 222 550 c 0
 222 607 241 650 344 650 c 0
 436 650 468 635 468 568 c 2
 468 539 l 1
 549 539 l 1
 549 588 l 2
 549 703 476 724 336 724 c 0
 173 724 129 646 129 558 c 0
 129 483 163 445 214 398 c 1
 119 370 86 312 86 214 c 0
 86 96 136 -12 352 -12 c 0
EndSplineSet
EndChar

StartChar: approxequal
Encoding: 8776 8776 192
Width: 430
VWidth: 0
Flags: HW
PickledData: "(dp1
S'org.robofab.postScriptHintData'
p2
(dp3
s."
LayerCount: 2
Fore
SplineSet
293 459 m 0
 352 459 399 500 399 581 c 1
 352 581 l 1
 352 551 338 531 298 531 c 0
 263 531 204 588 137 588 c 0
 78 588 31 547 31 466 c 1
 79 466 l 1
 79 496 92 517 132 517 c 0
 167 517 226 459 293 459 c 0
293 310 m 0
 352 310 399 351 399 432 c 1
 352 432 l 1
 352 402 338 381 298 381 c 0
 263 381 204 438 137 438 c 0
 78 438 31 398 31 317 c 1
 79 317 l 1
 79 347 92 367 132 367 c 0
 167 367 226 310 293 310 c 0
EndSplineSet
EndChar

StartChar: asciicircum
Encoding: 94 94 195
Width: 613
VWidth: 0
Flags: HW
PickledData: "(dp1
S'org.robofab.postScriptHintData'
p2
(dp3
s."
LayerCount: 2
Fore
SplineSet
75 306 m 1
 170 306 l 1
 307 567 l 1
 444 306 l 1
 539 306 l 1
 359 626 l 1
 250 626 l 1
 75 306 l 1
EndSplineSet
EndChar

StartChar: asciitilde
Encoding: 126 126 196
Width: 430
VWidth: 0
Flags: HW
PickledData: "(dp1
S'org.robofab.postScriptHintData'
p2
(dp3
s."
LayerCount: 2
Fore
SplineSet
293 573 m 0
 352 573 399 628 399 709 c 1
 352 709 l 1
 352 679 338 644 298 644 c 0
 263 644 204 716 137 716 c 0
 78 716 31 661 31 580 c 1
 79 580 l 1
 79 610 92 645 132 645 c 0
 167 645 226 573 293 573 c 0
EndSplineSet
EndChar

StartChar: asterisk
Encoding: 42 42 197
Width: 500
VWidth: 0
Flags: HW
PickledData: "(dp1
S'org.robofab.postScriptHintData'
p2
(dp3
s."
LayerCount: 2
Fore
SplineSet
207 292 m 1
 293 292 l 1
 279 445 l 1
 400 353 l 1
 446 427 l 1
 310 497 l 1
 452 554 l 1
 412 632 l 1
 279 547 l 1
 293 706 l 1
 207 706 l 1
 220 553 l 1
 100 646 l 1
 53 571 l 1
 190 502 l 1
 48 445 l 1
 87 366 l 1
 221 451 l 1
 207 292 l 1
EndSplineSet
EndChar

StartChar: at
Encoding: 64 64 198
Width: 1000
VWidth: 0
Flags: HW
PickledData: "(dp1
S'org.robofab.postScriptHintData'
p2
(dp3
s."
LayerCount: 2
Fore
SplineSet
563 167 m 0
 502 167 462 197 462 263 c 0
 462 310 484 338 592 366 c 0
 666 385 722 399 731 403 c 1
 731 255 l 1
 715 201 625 167 563 167 c 0
539 -126 m 0
 648 -126 760 -101 816 -77 c 1
 792 -8 l 1
 743 -29 644 -54 539 -54 c 0
 375 -54 270 7 270 146 c 2
 270 457 l 2
 270 597 356 650 519 650 c 0
 714 650 731 576 731 466 c 1
 731 466 649 447 584 431 c 0
 396 386 363 336 363 260 c 0
 363 171 424 95 547 95 c 0
 653 95 717 145 743 184 c 1
 755 144 769 104 846 104 c 2
 865 104 l 1
 875 176 l 1
 821 176 818 192 818 234 c 2
 818 475 l 2
 818 568 816 724 519 724 c 0
 255 724 177 604 177 437 c 2
 177 162 l 2
 177 -2 276 -126 539 -126 c 0
EndSplineSet
EndChar

StartChar: b
Encoding: 98 98 200
Width: 587
VWidth: 0
Flags: HW
PickledData: "(dp1
S'org.robofab.postScriptHintData'
p2
(dp3
s."
AnchorPoint: "top" 324 518 basechar 0
LayerCount: 2
Fore
SplineSet
292 62 m 0
 249 62 210 77 183 92 c 1
 183 425 l 1
 217 441 270 457 313 457 c 0
 380 457 424 428 424 366 c 2
 424 162 l 2
 424 99 364 62 292 62 c 0
306 -11 m 0
 441 -11 516 68 516 172 c 2
 516 359 l 2
 516 459 449 527 317 527 c 0
 269 527 216 512 183 493 c 1
 183 735 l 1
 91 735 l 1
 91 0 l 1
 159 0 l 1
 170 35 l 1
 197 18 244 -11 306 -11 c 0
EndSplineSet
EndChar

StartChar: backslash
Encoding: 92 92 201
Width: 375
VWidth: 0
Flags: HW
PickledData: "(dp1
S'org.robofab.postScriptHintData'
p2
(dp3
s."
LayerCount: 2
Fore
SplineSet
254 0 m 1
 344 0 l 1
 123 735 l 1
 31 735 l 1
 254 0 l 1
EndSplineSet
EndChar

StartChar: bar
Encoding: 124 124 202
Width: 336
VWidth: 0
Flags: HW
PickledData: "(dp1
S'org.robofab.postScriptHintData'
p2
(dp3
s."
LayerCount: 2
Fore
SplineSet
125 -82 m 1
 212 -82 l 1
 212 759 l 1
 125 759 l 1
 125 -82 l 1
EndSplineSet
EndChar

StartChar: braceleft
Encoding: 123 123 204
Width: 464
VWidth: 0
Flags: HW
PickledData: "(dp1
S'org.robofab.postScriptHintData'
p2
(dp3
s."
LayerCount: 2
Fore
SplineSet
423 -101 m 1
 423 -27 l 1
 285 -27 283 1 283 115 c 2
 283 145 l 2
 283 229 268 299 232 317 c 1
 268 335 283 405 283 489 c 2
 283 520 l 2
 283 634 285 662 423 662 c 1
 423 735 l 1
 191 735 189 655 189 511 c 2
 189 491 l 2
 189 365 165 354 114 354 c 2
 78 354 l 1
 78 280 l 1
 92 280 103 281 114 281 c 0
 165 281 189 270 189 144 c 2
 189 124 l 2
 189 -20 191 -101 423 -101 c 1
EndSplineSet
EndChar

StartChar: braceright
Encoding: 125 125 205
Width: 464
VWidth: 0
Flags: HW
PickledData: "(dp1
S'org.robofab.postScriptHintData'
p2
(dp3
s."
LayerCount: 2
Fore
SplineSet
62 -101 m 1
 294 -101 297 -20 297 124 c 2
 297 144 l 2
 297 270 321 281 372 281 c 0
 383 281 394 280 408 280 c 1
 408 354 l 1
 372 354 l 2
 321 354 297 365 297 491 c 2
 297 511 l 2
 297 655 294 735 62 735 c 1
 62 662 l 1
 200 662 203 634 203 520 c 2
 203 489 l 2
 203 405 218 335 254 317 c 1
 218 299 203 229 203 145 c 2
 203 115 l 2
 203 1 200 -27 62 -27 c 1
 62 -101 l 1
EndSplineSet
EndChar

StartChar: bracketleft
Encoding: 91 91 206
Width: 375
VWidth: 0
Flags: HW
PickledData: "(dp1
S'org.robofab.postScriptHintData'
p2
(dp3
s."
LayerCount: 2
Fore
SplineSet
125 -37 m 1
 310 -37 l 1
 310 28 l 1
 217 28 l 1
 217 682 l 1
 310 682 l 1
 310 747 l 1
 125 747 l 1
 125 -37 l 1
EndSplineSet
EndChar

StartChar: bracketright
Encoding: 93 93 207
Width: 375
VWidth: 0
Flags: HW
PickledData: "(dp1
S'org.robofab.postScriptHintData'
p2
(dp3
s."
LayerCount: 2
Fore
SplineSet
95 -37 m 1
 280 -37 l 1
 280 747 l 1
 95 747 l 1
 95 681 l 1
 188 681 l 1
 188 28 l 1
 95 28 l 1
 95 -37 l 1
EndSplineSet
EndChar

StartChar: breve
Encoding: 728 728 208
Width: 250
VWidth: 0
Flags: HW
PickledData: "(dp1
S'org.robofab.postScriptHintData'
p2
(dp3
s."
AnchorPoint: "top" 130 518 mark 0
LayerCount: 2
Fore
SplineSet
125 632 m 0
 193 632 235 679 235 735 c 1
 174 735 l 1
 174 706 149 691 125 691 c 0
 101 691 76 706 76 735 c 1
 15 735 l 1
 15 679 57 632 125 632 c 0
EndSplineSet
EndChar

StartChar: brokenbar
Encoding: 166 166 209
Width: 329
VWidth: 0
Flags: HW
PickledData: "(dp1
S'org.robofab.postScriptHintData'
p2
(dp3
s."
LayerCount: 2
Fore
SplineSet
124 414 m 1
 211 414 l 1
 211 759 l 1
 124 759 l 1
 124 414 l 1
124 -82 m 1
 211 -82 l 1
 211 250 l 1
 124 250 l 1
 124 -82 l 1
EndSplineSet
EndChar

StartChar: bullet
Encoding: 8226 8226 210
Width: 476
VWidth: 0
Flags: HW
PickledData: "(dp1
S'org.robofab.postScriptHintData'
p2
(dp3
s."
LayerCount: 2
Fore
SplineSet
237 146 m 0
 348 146 388 197 388 292 c 0
 388 388 349 440 238 440 c 0
 128 440 88 388 88 292 c 0
 88 197 127 146 237 146 c 0
EndSplineSet
EndChar

StartChar: uni2219
Encoding: 8729 8729 211
Width: 386
VWidth: 0
Flags: HW
PickledData: "(dp1
S'org.robofab.postScriptHintData'
p2
(dp3
s."
LayerCount: 2
Fore
SplineSet
193 159 m 0
 129 159 82 211 82 275 c 0
 82 339 129 391 193 391 c 0
 257 391 305 339 305 275 c 0
 305 211 257 159 193 159 c 0
EndSplineSet
EndChar

StartChar: c
Encoding: 99 99 212
Width: 540
VWidth: 0
Flags: HW
PickledData: "(dp1
S'org.robofab.postScriptHintData'
p2
(dp3
s."
AnchorPoint: "top" 290 518 basechar 0
AnchorPoint: "bot" 273 0 basechar 0
LayerCount: 2
Fore
SplineSet
283 -11 m 0
 424 -11 473 32 483 151 c 1
 398 151 l 1
 391 73 374 60 283 60 c 0
 209 60 164 86 164 160 c 2
 164 363 l 2
 164 432 204 457 283 457 c 0
 369 457 397 440 397 345 c 1
 484 354 l 1
 484 493 404 527 280 527 c 0
 152 527 72 463 72 365 c 2
 72 168 l 2
 72 72 129 -11 283 -11 c 0
EndSplineSet
EndChar

StartChar: caron
Encoding: 711 711 214
Width: 250
VWidth: 0
Flags: HW
PickledData: "(dp1
S'org.robofab.postScriptHintData'
p2
(dp3
s."
AnchorPoint: "top" 125 518 mark 0
LayerCount: 2
Fore
SplineSet
164 628 m 1
 265 758 l 1
 179 758 l 1
 128 688 l 1
 73 758 l 1
 -15 758 l 1
 91 628 l 1
 164 628 l 1
EndSplineSet
EndChar

StartChar: caron.alt
Encoding: 65538 -1 215
Width: 292
VWidth: 0
Flags: HW
PickledData: "(dp1
S'org.robofab.postScriptHintData'
p2
(dp3
s."
AnchorPoint: "caron.alt" 152 518 mark 0
LayerCount: 2
Fore
SplineSet
343 597 m 1
 371 623 427 693 427 786 c 2
 427 875 l 1
 302 875 l 1
 302 762 l 1
 371 762 l 1
 371 698 327 645 304 618 c 1
 343 597 l 1
EndSplineSet
EndChar

StartChar: cedilla
Encoding: 184 184 220
Width: 250
VWidth: 0
Flags: HW
PickledData: "(dp1
S'org.robofab.postScriptHintData'
p2
(dp3
s."
AnchorPoint: "bot" 100 0 mark 0
LayerCount: 2
Fore
SplineSet
104 -237 m 0
 185 -237 225 -194 225 -148 c 0
 225 -105 189 -59 117 -46 c 1
 114 0 l 1
 83 0 l 1
 83 -77 l 1
 132 -78 162 -112 162 -142 c 0
 162 -167 141 -190 93 -190 c 0
 83 -190 72 -189 59 -187 c 1
 59 -233 l 1
 76 -236 90 -237 104 -237 c 0
EndSplineSet
EndChar

StartChar: cent
Encoding: 162 162 221
Width: 541
VWidth: 0
Flags: HW
PickledData: "(dp1
S'org.robofab.postScriptHintData'
p2
(dp3
s."
LayerCount: 2
Fore
SplineSet
264 -100 m 1
 314 -100 l 1
 314 29 l 1
 264 29 l 1
 264 -100 l 1
264 495 m 1
 314 495 l 1
 314 624 l 1
 264 624 l 1
 264 495 l 1
EndSplineSet
Refer: 212 99 N 1 0 0 1 0 0 2
EndChar

StartChar: circumflex
Encoding: 710 710 222
Width: 250
VWidth: 0
Flags: HW
PickledData: "(dp1
S'org.robofab.postScriptHintData'
p2
(dp3
s."
AnchorPoint: "top" 125 518 mark 0
LayerCount: 2
Fore
SplineSet
-15 628 m 1
 73 628 l 1
 128 699 l 1
 179 628 l 1
 265 628 l 1
 164 758 l 1
 91 758 l 1
 -15 628 l 1
EndSplineSet
EndChar

StartChar: comma
Encoding: 44 44 224
Width: 312
VWidth: 0
Flags: HW
PickledData: "(dp1
S'org.robofab.postScriptHintData'
p2
(dp3
s."
LayerCount: 2
Fore
SplineSet
135 -165 m 1
 163 -139 219 -69 219 24 c 2
 219 114 l 1
 94 114 l 1
 94 0 l 1
 163 0 l 1
 163 -64 119 -117 96 -144 c 1
 135 -165 l 1
EndSplineSet
EndChar

StartChar: copyright
Encoding: 169 169 225
Width: 871
VWidth: 0
Flags: HW
PickledData: "(dp1
S'org.robofab.postScriptHintData'
p2
(dp3
s."
LayerCount: 2
Fore
SplineSet
436 -7 m 0
 639 -7 795 148 795 353 c 0
 795 557 639 711 436 711 c 0
 234 711 76 557 76 353 c 0
 76 148 234 -7 436 -7 c 0
437 40 m 0
 259 40 129 175 129 353 c 0
 129 531 259 665 437 665 c 0
 616 665 743 531 743 353 c 0
 743 175 616 40 437 40 c 0
441 140 m 0
 576 140 600 206 600 292 c 2
 600 309 l 1
 543 309 l 1
 543 279 l 2
 543 205 516 184 441 184 c 0
 367 184 328 205 328 279 c 2
 328 435 l 2
 328 509 366 533 440 533 c 0
 514 533 543 509 543 435 c 2
 543 403 l 1
 600 408 l 1
 600 420 l 2
 600 509 575 577 440 577 c 0
 299 577 269 513 269 424 c 2
 269 288 l 2
 269 201 301 140 441 140 c 0
EndSplineSet
EndChar

StartChar: currency
Encoding: 164 164 226
Width: 561
VWidth: 0
Flags: HW
PickledData: "(dp1
S'org.robofab.postScriptHintData'
p2
(dp3
s."
LayerCount: 2
Fore
SplineSet
276 217 m 0
 213 217 166 271 166 337 c 0
 166 403 213 457 276 457 c 0
 339 457 386 403 386 337 c 0
 386 271 339 217 276 217 c 0
275 176 m 0
 325 176 371 198 399 237 c 1
 479 184 l 1
 504 223 l 1
 421 279 l 1
 428 297 431 316 431 336 c 0
 431 366 423 395 410 420 c 1
 500 485 l 1
 475 525 l 1
 381 457 l 1
 353 484 316 497 275 497 c 0
 235 497 199 484 171 458 c 1
 83 518 l 1
 57 478 l 1
 142 421 l 1
 127 396 120 367 120 336 c 0
 120 312 125 289 134 268 c 1
 62 216 l 1
 86 176 l 1
 158 229 l 1
 187 195 229 176 275 176 c 0
EndSplineSet
EndChar

StartChar: d
Encoding: 100 100 227
Width: 585
VWidth: 0
Flags: HW
PickledData: "(dp1
S'org.robofab.postScriptHintData'
p2
(dp3
s."
AnchorPoint: "top" 285 518 basechar 0
AnchorPoint: "caron.alt" 403 518 basechar 0
AnchorPoint: "mid" 448 623 basechar 0
LayerCount: 2
Fore
SplineSet
283 62 m 0
 216 62 164 93 164 157 c 2
 164 369 l 2
 164 432 218 457 290 457 c 0
 333 457 376 449 403 436 c 1
 403 92 l 1
 382 79 335 62 283 62 c 0
277 -11 m 0
 330 -11 387 11 417 34 c 1
 433 0 l 1
 495 0 l 1
 495 735 l 1
 403 735 l 1
 403 508 l 1
 371 520 322 527 289 527 c 0
 139 527 72 463 72 359 c 2
 72 164 l 2
 72 64 128 -11 277 -11 c 0
EndSplineSet
EndChar

StartChar: dagger
Encoding: 8224 8224 228
Width: 434
VWidth: 0
Flags: HW
PickledData: "(dp1
S'org.robofab.postScriptHintData'
p2
(dp3
s."
LayerCount: 2
Fore
SplineSet
170 0 m 1
 262 0 l 1
 262 455 l 1
 392 455 l 1
 392 518 l 1
 262 518 l 1
 262 706 l 1
 170 706 l 1
 170 518 l 1
 43 518 l 1
 43 455 l 1
 170 455 l 1
 170 0 l 1
EndSplineSet
EndChar

StartChar: daggerdbl
Encoding: 8225 8225 229
Width: 458
VWidth: 0
Flags: HW
PickledData: "(dp1
S'org.robofab.postScriptHintData'
p2
(dp3
s."
LayerCount: 2
Fore
SplineSet
182 0 m 1
 273 0 l 1
 273 200 l 1
 403 200 l 1
 403 263 l 1
 273 263 l 1
 273 455 l 1
 403 455 l 1
 403 518 l 1
 273 518 l 1
 273 706 l 1
 182 706 l 1
 182 518 l 1
 55 518 l 1
 55 455 l 1
 182 455 l 1
 182 263 l 1
 55 263 l 1
 55 200 l 1
 182 200 l 1
 182 0 l 1
EndSplineSet
EndChar

StartChar: dcroat
Encoding: 273 273 231
Width: 585
VWidth: 0
Flags: HW
PickledData: "(dp1
S'org.robofab.postScriptHintData'
p2
(dp3
s."
LayerCount: 2
Fore
SplineSet
277 -11 m 0
 330 -11 387 11 417 34 c 1
 433 0 l 1
 495 0 l 1
 495 608 l 1
 577 608 l 1
 577 663 l 1
 495 663 l 1
 495 735 l 1
 403 735 l 1
 403 663 l 1
 309 663 l 1
 309 608 l 1
 403 608 l 1
 403 508 l 1
 371 520 322 527 289 527 c 0
 139 527 72 463 72 359 c 2
 72 164 l 2
 72 64 128 -11 277 -11 c 0
283 62 m 0
 216 62 164 93 164 157 c 2
 164 369 l 2
 164 432 218 457 290 457 c 0
 333 457 376 449 403 436 c 1
 403 92 l 1
 382 79 335 62 283 62 c 0
EndSplineSet
EndChar

StartChar: degree
Encoding: 176 176 233
Width: 505
VWidth: 0
Flags: HW
PickledData: "(dp1
S'org.robofab.postScriptHintData'
p2
(dp3
s."
LayerCount: 2
Fore
SplineSet
253 390 m 0
 340 390 411 461 411 548 c 0
 411 635 340 706 253 706 c 0
 166 706 95 635 95 548 c 0
 95 461 166 390 253 390 c 0
253 432 m 0
 189 432 142 484 142 548 c 0
 142 612 189 665 253 665 c 0
 317 665 365 612 365 548 c 0
 365 484 317 432 253 432 c 0
EndSplineSet
EndChar

StartChar: dieresis
Encoding: 168 168 234
Width: 500
VWidth: 0
Flags: HW
PickledData: "(dp1
S'org.robofab.postScriptHintData'
p2
(dp3
s."
AnchorPoint: "top" 250 518 mark 0
LayerCount: 2
Fore
SplineSet
323 656 m 1
 423 656 l 1
 423 744 l 1
 323 744 l 1
 323 656 l 1
77 656 m 1
 178 656 l 1
 178 744 l 1
 77 744 l 1
 77 656 l 1
EndSplineSet
EndChar

StartChar: divide
Encoding: 247 247 235
Width: 500
VWidth: 0
Flags: HW
PickledData: "(dp1
S'org.robofab.postScriptHintData'
p2
(dp3
s."
LayerCount: 2
Fore
SplineSet
202 384 m 1
 302 384 l 1
 302 486 l 1
 202 486 l 1
 202 384 l 1
49 230 m 1
 452 230 l 1
 452 297 l 1
 49 297 l 1
 49 230 l 1
202 44 m 1
 302 44 l 1
 302 146 l 1
 202 146 l 1
 202 44 l 1
EndSplineSet
EndChar

StartChar: dollar
Encoding: 36 36 237
Width: 636
VWidth: 0
Flags: HW
PickledData: "(dp1
S'org.robofab.postScriptHintData'
p2
(dp3
s."
LayerCount: 2
Fore
SplineSet
303 636.924059999 m 1
 303 425.471910112 l 1
 251 443 l 2
 191 463 179 488 179 531 c 0
 179 538 180 547 180 555 c 0
 183.506642019 607.599630283 226.977033346 631.763515867 303 636.924059999 c 1
356 68.531166412 m 1
 356 314.789473684 l 1
 392 303 l 2
 464 280 478 253 478 213 c 0
 478 117.519375146 453.464879639 73.7377539086 356 68.531166412 c 1
303 -182 m 1
 356 -182 l 1
 356 -10.6312254128 l 1
 506.193451826 -4.67314693747 568 73.1400387935 568 198 c 0
 568 305 525 351 429 383 c 2
 356 407.606741573 l 1
 356 637.651428261 l 1
 437.636072159 634.62354637 493.958739257 612.379738026 533 591 c 1
 557 667 l 1
 516.658815749 692.101181312 455.422476033 712.38040367 356 716.310346507 c 1
 356 858 l 1
 303 858 l 1
 303 716.727301885 l 1
 176.528231122 712.604149725 83 661.272171163 83 532 c 0
 83 436 123 391 221 359 c 2
 303 332.14619883 l 1
 303 69.3223314488 l 1
 227.299721799 75.4473489944 152.324890281 101.955620574 105 130 c 1
 70 55 l 1
 135.868983637 16.7247797787 212.83039278 -5.7041182902 303 -10.1709216367 c 1
 303 -182 l 1
EndSplineSet
EndChar

StartChar: dotaccent
Encoding: 729 729 238
Width: 250
VWidth: 0
Flags: HW
PickledData: "(dp1
S'org.robofab.postScriptHintData'
p2
(dp3
s."
AnchorPoint: "top" 125 518 mark 0
LayerCount: 2
Fore
SplineSet
73 648 m 1
 167 648 l 1
 167 750 l 1
 73 750 l 1
 73 648 l 1
EndSplineSet
EndChar

StartChar: dotlessi
Encoding: 305 305 239
Width: 271
VWidth: 0
Flags: HW
PickledData: "(dp1
S'org.robofab.postScriptHintData'
p2
(dp3
s."
AnchorPoint: "top" 144 518 basechar 0
AnchorPoint: "ogonek" 148 0 basechar 0
LayerCount: 2
Fore
SplineSet
94 0 m 1
 186 0 l 1
 186 518 l 1
 94 518 l 1
 94 0 l 1
EndSplineSet
EndChar

StartChar: uni0237
Encoding: 567 567 240
Width: 290
VWidth: 0
Flags: HW
PickledData: "(dp1
S'org.robofab.postScriptHintData'
p2
(dp3
s."
AnchorPoint: "top" 162 518 basechar 0
LayerCount: 2
Fore
SplineSet
13 -172 m 1
 45 -172 l 2
 146 -172 203 -149 203 3 c 2
 203 518 l 1
 111 518 l 1
 111 -2 l 2
 111 -85 83 -96 18 -96 c 2
 4 -96 l 1
 13 -172 l 1
EndSplineSet
EndChar

StartChar: e
Encoding: 101 101 243
Width: 555
VWidth: 0
Flags: HW
PickledData: "(dp1
S'org.robofab.postScriptHintData'
p2
(dp3
s."
AnchorPoint: "top" 285 518 basechar 0
AnchorPoint: "ogonek" 340 0 basechar 0
AnchorPoint: "bot" 288 0 basechar 0
LayerCount: 2
Fore
SplineSet
164 309 m 1
 164 371 l 2
 164 435 211 457 284 457 c 0
 355 457 402 442 402 380 c 2
 402 309 l 1
 164 309 l 1
288 -11 m 0
 432 -11 477 16 490 138 c 1
 409 138 l 1
 401 60 374 60 288 60 c 0
 190 60 164 90 164 174 c 2
 164 247 l 1
 491 247 l 1
 491 370 l 2
 491 468 426 527 284 527 c 0
 136 527 72 461 72 363 c 2
 72 183 l 2
 72 54 134 -11 288 -11 c 0
EndSplineSet
EndChar

StartChar: eight
Encoding: 56 56 252
Width: 610
VWidth: 0
Flags: HW
PickledData: "(dp1
S'org.robofab.postScriptHintData'
p2
(dp3
s."
LayerCount: 2
Fore
SplineSet
305 413 m 1
 234 447 173 478 173 541 c 0
 173 601 208 638 306 638 c 0
 403 638 437 601 437 541 c 0
 437 478 376 448 305 413 c 1
306 68 m 0
 213 68 158 98 158 182 c 0
 158 259 225 297 305 336 c 1
 384 297 453 259 453 182 c 0
 453 98 398 68 306 68 c 0
303 -11 m 0
 449 -11 546 50 546 179 c 0
 546 283 473 343 396 377 c 1
 470 411 532 450 532 541 c 0
 532 671 429 717 306 717 c 0
 181 717 78 671 78 541 c 0
 78 450 140 411 214 377 c 1
 137 343 64 283 64 179 c 0
 64 50 159 -11 303 -11 c 0
EndSplineSet
EndChar

StartChar: emdash
Encoding: 8212 8212 256
Width: 537
VWidth: 0
Flags: HW
PickledData: "(dp1
S'org.robofab.postScriptHintData'
p2
(dp3
s."
LayerCount: 2
Fore
SplineSet
1 196 m 1
 536 196 l 1
 536 268 l 1
 1 268 l 1
 1 196 l 1
EndSplineSet
EndChar

StartChar: emptyset
Encoding: 8709 8709 257
Width: 757
VWidth: 0
Flags: HW
PickledData: "(dp1
S'org.robofab.postScriptHintData'
p2
(dp3
s."
LayerCount: 2
Fore
SplineSet
101 26 m 1
 134 -1 l 1
 205.904295767 84.5743139739 l 1
 254.537875215 51.2099371331 314.035215785 32 379 32 c 0
 549 32 680 162 680 333 c 0
 680 417.714244163 647.469829948 492.495611975 593.793896072 546.207184298 c 1
 660 625 l 1
 627 653 l 1
 561.066090091 574.405776592 l 1
 510.986171198 611.442800767 448.226665484 633 379 633 c 0
 210 633 78 503 78 333 c 0
 78 243.668547238 114.02388139 165.526330363 172.527596785 111.26198324 c 1
 101 26 l 1
561.313740491 507.552094196 m 1
 602.180999328 463.03307378 626 402.103130142 626 333 c 0
 626 189 524 82 380 82 c 0
 326.340085168 82 278.030881151 97.0664751919 238.612496895 123.50080429 c 1
 561.313740491 507.552094196 l 1
529.258809644 536.491014537 m 1
 205.419056584 150.469103571 l 1
 159.459900707 195.395144104 132 259.35939907 132 333 c 0
 132 476 237 584 380 584 c 0
 437.818698359 584 488.866270225 566.588531875 529.258809644 536.491014537 c 1
EndSplineSet
EndChar

StartChar: endash
Encoding: 8211 8211 258
Width: 263
VWidth: 0
Flags: HW
PickledData: "(dp1
S'org.robofab.postScriptHintData'
p2
(dp3
s."
LayerCount: 2
Fore
SplineSet
1 296 m 1
 261 296 l 1
 261 357 l 1
 1 357 l 1
 1 296 l 1
EndSplineSet
EndChar

StartChar: eng
Encoding: 331 331 259
Width: 598
VWidth: 0
Flags: HW
PickledData: "(dp1
S'org.robofab.postScriptHintData'
p2
(dp3
s."
LayerCount: 2
Fore
SplineSet
313 -154 m 1
 482 -154 513 -79 513 107 c 2
 513 376 l 2
 513 458 463 527 336 527 c 0
 261 527 213 502 183 467 c 1
 183 518 l 1
 91 518 l 1
 91 0 l 1
 183 0 l 1
 183 369 l 2
 183 419 222 457 312 457 c 0
 376 457 421 432 421 381 c 2
 421 104 l 2
 421 -48 420 -85 299 -85 c 1
 313 -154 l 1
EndSplineSet
EndChar

StartChar: equal
Encoding: 61 61 261
Width: 610
VWidth: 0
Flags: HW
PickledData: "(dp1
S'org.robofab.postScriptHintData'
p2
(dp3
s."
LayerCount: 2
Fore
SplineSet
109 393 m 1
 501 393 l 1
 501 465 l 1
 109 465 l 1
 109 393 l 1
109 228 m 1
 501 228 l 1
 501 300 l 1
 109 300 l 1
 109 228 l 1
EndSplineSet
EndChar

StartChar: estimated
Encoding: 8494 8494 262
Width: 585
VWidth: 0
Flags: HW
PickledData: "(dp1
S'org.robofab.postScriptHintData'
p2
(dp3
s."
LayerCount: 2
Fore
SplineSet
46 356 m 0
 46 201 137 87 323 87 c 0
 424 87 490 130 538 188 c 1
 513 213 l 1
 461 157 389 129 321 129 c 0
 259 129 199 152 159 198 c 1
 159 347 l 1
 542 347 l 1
 542 513 466 625 311 625 c 0
 155 625 46 508 46 356 c 0
312 591 m 0
 370 591 426 567 458 520 c 1
 458 386 l 1
 159 386 l 1
 159 521 l 1
 194 567 254 591 312 591 c 0
EndSplineSet
EndChar

StartChar: eth
Encoding: 240 240 263
Width: 565
VWidth: 0
Flags: HW
PickledData: "(dp1
S'org.robofab.postScriptHintData'
p2
(dp3
s."
LayerCount: 2
Fore
SplineSet
287 59 m 0
 215 59 165 81 165 150 c 2
 165 318 l 2
 165 382 216 407 287 407 c 0
 316 407 380 397 403 382 c 1
 403 161 l 2
 403 104 392 59 287 59 c 0
287 -10 m 0
 474 -10 493 83 493 178 c 2
 493 359 l 2
 493 516 451 641 338 697 c 1
 387 764 l 1
 340 790 l 1
 291 718 l 1
 257 726 225 729 197 729 c 0
 161 729 133 724 116 721 c 1
 103 659 l 1
 120 660 141 662 166 662 c 0
 191 662 218 660 247 655 c 1
 184 562 l 1
 230 537 l 1
 299 637 l 1
 359 605 401 543 401 445 c 1
 388 456 339 476 282 476 c 0
 154 476 73 413 73 315 c 2
 73 153 l 2
 73 57 133 -10 287 -10 c 0
EndSplineSet
EndChar

StartChar: exclam
Encoding: 33 33 265
Width: 375
VWidth: 0
Flags: HW
PickledData: "(dp1
S'org.robofab.postScriptHintData'
p2
(dp3
s."
LayerCount: 2
Fore
SplineSet
172 181 m 1
 200 181 l 1
 200 181 238 518 238 706 c 1
 140 706 l 1
 140 518 172 181 172 181 c 1
137 0 m 1
 236 0 l 1
 236 101 l 1
 137 101 l 1
 137 0 l 1
EndSplineSet
EndChar

StartChar: f
Encoding: 102 102 267
Width: 381
VWidth: 0
Flags: HW
PickledData: "(dp1
S'org.robofab.postScriptHintData'
p2
(dp3
s."
AnchorPoint: "top" 189 706 basechar 0
LayerCount: 2
Fore
SplineSet
136 0 m 1
 228 0 l 1
 228 448 l 1
 354 448 l 1
 354 518 l 1
 228 518 l 1
 228 605 l 2
 228 642 247 670 303 670 c 2
 359 670 l 1
 354 735 l 1
 295 735 l 2
 189 735 136 693 136 596 c 2
 136 518 l 1
 50 518 l 1
 50 448 l 1
 136 448 l 1
 136 0 l 1
EndSplineSet
EndChar

StartChar: uni02C9
Encoding: 713 713 276
Width: 250
VWidth: 0
Flags: HW
AnchorPoint: "top" 125 518 mark 0
AnchorPoint: "mid" 125 681 mark 0
LayerCount: 2
Fore
SplineSet
-4 645 m 1
 254 645 l 1
 254 717 l 1
 -4 717 l 1
 -4 645 l 1
EndSplineSet
EndChar

StartChar: five
Encoding: 53 53 277
Width: 610
VWidth: 0
Flags: HW
PickledData: "(dp1
S'org.robofab.postScriptHintData'
p2
(dp3
s."
LayerCount: 2
Fore
SplineSet
309 -11 m 0
 452 -11 545 82 545 219 c 0
 545 358 473 445 327 445 c 0
 278 445 229 428 198 400 c 1
 219 625 l 1
 500 625 l 1
 500 706 l 1
 140 706 l 1
 115 348 l 1
 187 318 l 1
 237 355 267 372 315 372 c 0
 413 372 453 309 453 214 c 0
 453 120 397 68 305 68 c 0
 205 68 161 93 110 127 c 1
 84 52 l 1
 135 22 200 -11 309 -11 c 0
EndSplineSet
EndChar

StartChar: florin
Encoding: 402 402 280
Width: 434
VWidth: 0
Flags: HW
PickledData: "(dp1
S'org.robofab.postScriptHintData'
p2
(dp3
s."
LayerCount: 2
Fore
SplineSet
123 -93 m 0
 221 -93 254 -48 254 44 c 2
 254 355 l 1
 317 355 l 1
 317 419 l 1
 254 419 l 1
 254 575 l 2
 254 617 265 652 332 652 c 0
 337 652 342 651 347 651 c 1
 347 712 l 1
 328 714 311 715 296 715 c 0
 194 715 163 670 163 564 c 2
 163 419 l 1
 105 419 l 1
 105 355 l 1
 163 355 l 1
 163 31 l 2
 163 -9 146 -30 92 -30 c 0
 85 -30 77 -30 69 -29 c 1
 69 -89 l 1
 89 -91 107 -93 123 -93 c 0
EndSplineSet
EndChar

StartChar: foundryicon
Encoding: 65546 -1 281
Width: 657
VWidth: 0
Flags: HW
PickledData: "(dp1
S'org.robofab.postScriptHintData'
p2
(dp3
s."
LayerCount: 2
Fore
SplineSet
137 1 m 1
 327 136 l 1
 521 1 l 1
 450 225 l 1
 641 369 l 1
 404 369 l 1
 327 593 l 1
 253 369 l 1
 17 369 l 1
 207 225 l 1
 137 1 l 1
237 198 m 1
 237 328 l 1
 289 328 l 1
 372 255 l 1
 372 328 l 1
 423 328 l 1
 423 198 l 1
 372 198 l 1
 289 270 l 1
 289 198 l 1
 237 198 l 1
EndSplineSet
EndChar

StartChar: four
Encoding: 52 52 282
Width: 610
VWidth: 0
Flags: HW
PickledData: "(dp1
S'org.robofab.postScriptHintData'
p2
(dp3
s."
LayerCount: 2
Fore
SplineSet
382 0 m 1
 464 0 l 1
 464 171 l 1
 567 171 l 1
 567 247 l 1
 464 247 l 1
 464 409 l 1
 382 409 l 1
 382 247 l 1
 179 247 l 1
 430 706 l 1
 328 706 l 1
 70 248 l 1
 70 171 l 1
 382 171 l 1
 382 0 l 1
EndSplineSet
EndChar

StartChar: uni2074
Encoding: 8308 8308 283
Width: 512
VWidth: 0
Flags: HW
PickledData: "(dp1
S'org.robofab.postScriptHintData'
p2
(dp3
s."
LayerCount: 2
Fore
SplineSet
290 339 m 1
 348 339 l 1
 348 428 l 1
 410 428 l 1
 410 478 l 1
 348 478 l 1
 348 579 l 1
 290 579 l 1
 290 478 l 1
 171 478 l 1
 336 754 l 1
 268 754 l 1
 92 475 l 1
 92 428 l 1
 290 428 l 1
 290 339 l 1
EndSplineSet
EndChar

StartChar: fraction
Encoding: 8260 8260 284
Width: 375
VWidth: 0
Flags: HW
PickledData: "(dp1
S'org.robofab.postScriptHintData'
p2
(dp3
s."
LayerCount: 2
Fore
SplineSet
8 0 m 1
 99 0 l 1
 367 735 l 1
 278 735 l 1
 8 0 l 1
EndSplineSet
EndChar

StartChar: g
Encoding: 103 103 285
Width: 577
VWidth: 0
Flags: HW
PickledData: "(dp1
S'org.robofab.postScriptHintData'
p2
(dp3
s."
AnchorPoint: "top" 276 518 basechar 0
LayerCount: 2
Fore
SplineSet
283 90 m 0
 216 90 164 109 164 171 c 2
 164 365 l 2
 164 428 210 457 282 457 c 0
 364 457 401 431 401 386 c 2
 401 129 l 1
 386 117 351 90 283 90 c 0
294 -199 m 0
 431 -199 493 -109 493 12 c 2
 493 518 l 1
 401 518 l 1
 401 476 l 1
 386 500 322 527 269 527 c 0
 134 527 72 459 72 355 c 2
 72 185 l 2
 72 78 137 20 269 20 c 0
 305 20 372 30 401 57 c 1
 401 -15 l 2
 401 -92 365 -129 275 -129 c 0
 226 -129 172 -121 144 -111 c 1
 124 -180 l 1
 162 -194 224 -199 294 -199 c 0
EndSplineSet
EndChar

StartChar: germandbls
Encoding: 223 223 292
Width: 625
VWidth: 0
Flags: HW
PickledData: "(dp1
S'org.robofab.postScriptHintData'
p2
(dp3
s."
LayerCount: 2
Fore
SplineSet
93 0 m 1
 185 0 l 1
 185 552 l 2
 185 637 243 650 314 650 c 0
 381 650 424 632 424 546 c 0
 424 483 399 445 293 445 c 1
 293 376 l 1
 409 376 484 363 484 237 c 0
 484 89 384 82 253 72 c 1
 262 0 l 1
 460 0 569 58 569 238 c 0
 569 384 497 405 440 429 c 1
 493 444 516 478 516 554 c 0
 516 658 455 724 318 724 c 0
 193 724 93 685 93 539 c 2
 93 0 l 1
EndSplineSet
EndChar

StartChar: grave
Encoding: 96 96 293
Width: 300
VWidth: 0
Flags: HW
PickledData: "(dp1
S'org.robofab.postScriptHintData'
p2
(dp3
s."
AnchorPoint: "top" 166 518 mark 0
LayerCount: 2
Fore
SplineSet
12 774 m 1
 127 588 l 1
 189 588 l 1
 122 774 l 1
 12 774 l 1
EndSplineSet
EndChar

StartChar: greater
Encoding: 62 62 294
Width: 610
VWidth: 0
Flags: HW
PickledData: "(dp1
S'org.robofab.postScriptHintData'
p2
(dp3
s."
LayerCount: 2
Fore
SplineSet
102 0 m 1
 534 230 l 1
 534 329 l 1
 102 559 l 1
 102 457 l 1
 458 279 l 1
 102 99 l 1
 102 0 l 1
EndSplineSet
EndChar

StartChar: guillemotleft
Encoding: 171 171 296
Width: 514
VWidth: 0
Flags: HW
PickledData: "(dp1
S'org.robofab.postScriptHintData'
p2
(dp3
s."
LayerCount: 2
Fore
SplineSet
386 39 m 1
 453 73 l 1
 353 259 l 1
 453 444 l 1
 382 479 l 1
 249 259 l 1
 386 39 l 1
184 39 m 1
 252 73 l 1
 151 259 l 1
 252 444 l 1
 180 479 l 1
 47 259 l 1
 184 39 l 1
EndSplineSet
EndChar

StartChar: guillemotright
Encoding: 187 187 297
Width: 514
VWidth: 0
Flags: HW
PickledData: "(dp1
S'org.robofab.postScriptHintData'
p2
(dp3
s."
LayerCount: 2
Fore
SplineSet
334 39 m 1
 468 259 l 1
 331 479 l 1
 263 444 l 1
 364 259 l 1
 263 73 l 1
 334 39 l 1
132 39 m 1
 266 259 l 1
 129 479 l 1
 62 444 l 1
 162 259 l 1
 62 73 l 1
 132 39 l 1
EndSplineSet
EndChar

StartChar: guilsinglleft
Encoding: 8249 8249 298
Width: 375
VWidth: 0
Flags: HW
PickledData: "(dp1
S'org.robofab.postScriptHintData'
p2
(dp3
s."
LayerCount: 2
Fore
SplineSet
222 39 m 1
 290 73 l 1
 189 259 l 1
 290 444 l 1
 218 479 l 1
 85 259 l 1
 222 39 l 1
EndSplineSet
EndChar

StartChar: guilsinglright
Encoding: 8250 8250 299
Width: 375
VWidth: 0
Flags: HW
PickledData: "(dp1
S'org.robofab.postScriptHintData'
p2
(dp3
s."
LayerCount: 2
Fore
SplineSet
160 39 m 1
 293 259 l 1
 156 479 l 1
 88 444 l 1
 189 259 l 1
 88 73 l 1
 160 39 l 1
EndSplineSet
EndChar

StartChar: h
Encoding: 104 104 300
Width: 597
VWidth: 0
Flags: HW
PickledData: "(dp1
S'org.robofab.postScriptHintData'
p2
(dp3
s."
AnchorPoint: "top" 335 518 basechar 0
AnchorPoint: "mid" 139 623 basechar 0
LayerCount: 2
Fore
SplineSet
91 0 m 1
 183 0 l 1
 183 370 l 2
 183 420 223 457 313 457 c 0
 377 457 421 433 421 382 c 2
 421 0 l 1
 513 0 l 1
 513 377 l 2
 513 459 464 527 337 527 c 0
 262 527 213 504 183 469 c 1
 183 735 l 1
 91 735 l 1
 91 0 l 1
EndSplineSet
EndChar

StartChar: hbar
Encoding: 295 295 301
Width: 597
VWidth: 0
Flags: HW
PickledData: "(dp1
S'org.robofab.postScriptHintData'
p2
(dp3
s."
LayerCount: 2
Fore
SplineSet
91 0 m 1
 183 0 l 1
 183 370 l 2
 183 420 223 457 313 457 c 0
 377 457 421 433 421 382 c 2
 421 0 l 1
 513 0 l 1
 513 377 l 2
 513 459 464 527 337 527 c 0
 262 527 213 504 183 469 c 1
 183 610 l 1
 342 610 l 1
 342 670 l 1
 183 670 l 1
 183 735 l 1
 91 735 l 1
 91 670 l 1
 14 670 l 1
 14 610 l 1
 91 610 l 1
 91 0 l 1
EndSplineSet
EndChar

StartChar: hungarumlaut
Encoding: 733 733 303
Width: 500
VWidth: 0
Flags: HW
PickledData: "(dp1
S'org.robofab.postScriptHintData'
p2
(dp3
s."
AnchorPoint: "top" 206 518 mark 0
LayerCount: 2
Fore
SplineSet
280 631 m 1
 343 631 l 1
 458 817 l 1
 348 817 l 1
 280 631 l 1
80 631 m 1
 143 631 l 1
 257 817 l 1
 147 817 l 1
 80 631 l 1
EndSplineSet
EndChar

StartChar: hyphen
Encoding: 45 45 304
Width: 500
VWidth: 0
Flags: HW
PickledData: "(dp1
S'org.robofab.postScriptHintData'
p2
(dp3
s."
AnchorPoint: "mid" 248 277 mark 0
LayerCount: 2
Fore
SplineSet
84 244 m 1
 406 244 l 1
 406 313 l 1
 84 313 l 1
 84 244 l 1
EndSplineSet
EndChar

StartChar: infinity
Encoding: 8734 8734 316
Width: 805
VWidth: 0
Flags: HW
PickledData: "(dp1
S'org.robofab.postScriptHintData'
p2
(dp3
s."
LayerCount: 2
Fore
SplineSet
616 301 m 0
 580 301 449 403 449 403 c 1
 449 403 580 501 616 501 c 0
 667 501 692 451 692 401 c 0
 692 351 667 301 616 301 c 0
184 301 m 0
 133 301 107 351 107 401 c 0
 107 451 133 501 184 501 c 0
 220 501 350 405 350 405 c 1
 350 405 220 301 184 301 c 0
180 237 m 0
 267 237 399 359 399 359 c 1
 399 359 538 237 625 237 c 0
 724 237 774 318 774 400 c 0
 774 483 724 565 625 565 c 0
 538 565 399 456 399 456 c 1
 399 456 267 565 180 565 c 0
 81 565 31 483 31 401 c 0
 31 319 81 237 180 237 c 0
EndSplineSet
EndChar

StartChar: integral
Encoding: 8747 8747 317
Width: 434
VWidth: 0
Flags: HW
PickledData: "(dp1
S'org.robofab.postScriptHintData'
p2
(dp3
s."
LayerCount: 2
Fore
SplineSet
123 -186 m 0
 221 -186 254 -140 254 -48 c 2
 254 577 l 2
 254 619 265 654 332 654 c 0
 337 654 342 653 347 653 c 1
 347 714 l 1
 328 716 311 717 296 717 c 0
 194 717 163 672 163 566 c 2
 163 -62 l 2
 163 -102 146 -123 92 -123 c 0
 85 -123 77 -123 69 -122 c 1
 69 -182 l 1
 89 -184 107 -186 123 -186 c 0
EndSplineSet
EndChar

StartChar: k
Encoding: 107 107 323
Width: 559
VWidth: 0
Flags: HW
PickledData: "(dp1
S'org.robofab.postScriptHintData'
p2
(dp3
s."
AnchorPoint: "top" 300 518 basechar 0
AnchorPoint: "bot" 306 0 basechar 0
LayerCount: 2
Fore
SplineSet
91 0 m 1
 183 0 l 1
 183 163 l 1
 260 240 l 1
 446 0 l 1
 552 0 l 1
 320 290 l 1
 531 518 l 1
 430 518 l 1
 183 256 l 1
 183 735 l 1
 91 735 l 1
 91 0 l 1
EndSplineSet
EndChar

StartChar: kgreenlandic
Encoding: 312 312 326
Width: 560
VWidth: 0
Flags: HW
PickledData: "(dp1
S'org.robofab.postScriptHintData'
p2
(dp3
s."
LayerCount: 2
Fore
SplineSet
91 0 m 1
 183 0 l 1
 183 173 l 1
 254 243 l 1
 442 0 l 1
 548 0 l 1
 325 285 l 1
 527 518 l 1
 425 518 l 1
 342 429 266 338 183 249 c 1
 183 518 l 1
 91 518 l 1
 91 0 l 1
EndSplineSet
EndChar

StartChar: l
Encoding: 108 108 327
Width: 337
VWidth: 0
Flags: HW
PickledData: "(dp1
S'org.robofab.postScriptHintData'
p2
(dp3
s."
AnchorPoint: "top" 147 735 basechar 0
AnchorPoint: "caron.alt" 114 518 basechar 0
AnchorPoint: "bot" 186 0 basechar 0
LayerCount: 2
Fore
SplineSet
259 -4 m 2
 285 -4 l 1
 296 73 l 1
 280 73 l 2
 203 73 185 90 185 174 c 2
 185 735 l 1
 93 735 l 1
 93 175 l 2
 93 24 146 -4 259 -4 c 2
EndSplineSet
EndChar

StartChar: less
Encoding: 60 60 332
Width: 610
VWidth: 0
Flags: HW
PickledData: "(dp1
S'org.robofab.postScriptHintData'
p2
(dp3
s."
LayerCount: 2
Fore
SplineSet
509 0 m 1
 509 102 l 1
 152 280 l 1
 509 459 l 1
 509 559 l 1
 76 328 l 1
 76 230 l 1
 509 0 l 1
EndSplineSet
EndChar

StartChar: logicalnot
Encoding: 172 172 335
Width: 421
VWidth: 0
Flags: HW
PickledData: "(dp1
S'org.robofab.postScriptHintData'
p2
(dp3
s."
LayerCount: 2
Fore
SplineSet
288 163 m 1
 352 163 l 1
 352 338 l 1
 48 338 l 1
 48 271 l 1
 288 271 l 1
 288 163 l 1
EndSplineSet
EndChar

StartChar: lozenge
Encoding: 9674 9674 336
Width: 539
VWidth: 0
Flags: HW
PickledData: "(dp1
S'org.robofab.postScriptHintData'
p2
(dp3
s."
LayerCount: 2
Fore
SplineSet
277 78 m 1
 144 354 l 1
 277 623 l 1
 397 354 l 1
 277 78 l 1
234 0 m 1
 317 0 l 1
 482 354 l 1
 317 706 l 1
 234 706 l 1
 57 354 l 1
 234 0 l 1
EndSplineSet
EndChar

StartChar: lslash
Encoding: 322 322 337
Width: 345
VWidth: 0
Flags: HW
PickledData: "(dp1
S'org.robofab.postScriptHintData'
p2
(dp3
s."
LayerCount: 2
Fore
SplineSet
259 -4 m 2
 285 -4 l 1
 296 73 l 1
 280 73 l 2
 203 73 185 90 185 174 c 2
 185 379.222222222 l 1
 295 433 l 1
 295 494 l 1
 185 439.814814815 l 1
 185 735 l 1
 93 735 l 1
 93 394.496296296 l 1
 25 361 l 1
 25 301 l 1
 93 334.244444444 l 1
 93 175 l 2
 93 24 146 -4 259 -4 c 2
EndSplineSet
EndChar

StartChar: m
Encoding: 109 109 338
Width: 908
VWidth: 0
Flags: HW
PickledData: "(dp1
S'org.robofab.postScriptHintData'
p2
(dp3
s."
AnchorPoint: "top" 485 518 basechar 0
LayerCount: 2
Fore
SplineSet
91 0 m 1
 183 0 l 1
 183 369 l 2
 183 419 218 457 308 457 c 0
 372 457 412 432 412 381 c 2
 412 0 l 1
 504 0 l 1
 504 369 l 2
 504 419 539 457 629 457 c 0
 693 457 730 432 730 381 c 2
 730 0 l 1
 822 0 l 1
 822 376 l 2
 822 458 779 527 652 527 c 0
 577 527 528 503 483 459 c 1
 459 500 411 527 331 527 c 0
 256 527 213 502 183 467 c 1
 183 518 l 1
 91 518 l 1
 91 0 l 1
EndSplineSet
EndChar

StartChar: macron
Encoding: 175 175 339
Width: 250
VWidth: 0
Flags: HW
PickledData: "(dp1
S'org.robofab.postScriptHintData'
p2
(dp3
s."
AnchorPoint: "top" 125 518 mark 0
AnchorPoint: "mid" 125 681 mark 0
LayerCount: 2
Fore
SplineSet
-4 645 m 1
 254 645 l 1
 254 717 l 1
 -4 717 l 1
 -4 645 l 1
EndSplineSet
EndChar

StartChar: minus
Encoding: 8722 8722 342
Width: 444
VWidth: 0
Flags: HW
PickledData: "(dp1
S'org.robofab.postScriptHintData'
p2
(dp3
s."
LayerCount: 2
Fore
SplineSet
69 214 m 1
 375 214 l 1
 375 297 l 1
 69 297 l 1
 69 214 l 1
EndSplineSet
EndChar

StartChar: uni03BC
Encoding: 956 956 343
AltUni2: 0000b5.ffffffff.0
Width: 596
VWidth: 0
Flags: HW
PickledData: "(dp1
S'org.robofab.postScriptHintData'
p2
(dp3
s."
LayerCount: 2
Fore
SplineSet
177 141 m 2
 177 90 217 60 281 60 c 0
 371 60 414 108 414 151 c 2
 414 518 l 1
 506 518 l 1
 506 0 l 1
 424 0 l 1
 414 65 l 1
 388 19 338 -11 263 -11 c 0
 229.066499131 -11 200.558794565 -5.93116397995 177 3.06198093479 c 1
 177 -126 l 1
 85 -126 l 1
 85 518 l 1
 177 518 l 1
 177 141 l 2
EndSplineSet
EndChar

StartChar: multiply
Encoding: 215 215 344
Width: 475
VWidth: 0
Flags: HW
PickledData: "(dp1
S'org.robofab.postScriptHintData'
p2
(dp3
s."
LayerCount: 2
Fore
SplineSet
117 105 m 1
 238 224 l 1
 359 105 l 1
 412 168 l 1
 297 281 l 1
 412 394 l 1
 359 458 l 1
 238 339 l 1
 117 458 l 1
 63 394 l 1
 179 281 l 1
 63 168 l 1
 117 105 l 1
EndSplineSet
EndChar

StartChar: n
Encoding: 110 110 345
Width: 597
VWidth: 0
Flags: HW
PickledData: "(dp1
S'org.robofab.postScriptHintData'
p2
(dp3
s."
AnchorPoint: "top" 334 518 basechar 0
AnchorPoint: "bot" 299 0 basechar 0
LayerCount: 2
Fore
SplineSet
91 0 m 1
 183 0 l 1
 183 369 l 2
 183 419 222 457 312 457 c 0
 376 457 421 432 421 381 c 2
 421 0 l 1
 513 0 l 1
 513 376 l 2
 513 458 463 527 336 527 c 0
 261 527 213 502 183 467 c 1
 183 518 l 1
 91 518 l 1
 91 0 l 1
EndSplineSet
EndChar

StartChar: nine
Encoding: 57 57 350
Width: 610
VWidth: 0
Flags: HW
PickledData: "(dp1
S'org.robofab.postScriptHintData'
p2
(dp3
s."
LayerCount: 2
Fore
SplineSet
310 357 m 0
 223 357 165 380 165 500 c 0
 165 610 222 638 310 638 c 0
 398 638 449 610 449 499 c 0
 449 391 398 357 310 357 c 0
220 0 m 1
 318 0 l 1
 471 268 l 1
 517 351 540 429 540 498 c 0
 540 654 446 717 311 717 c 0
 176 717 74 655 74 500 c 0
 74 339 163 277 308 277 c 0
 337 277 374 286 395 295 c 1
 220 0 l 1
EndSplineSet
EndChar

StartChar: notequal
Encoding: 8800 8800 352
Width: 375
VWidth: 0
Flags: HW
PickledData: "(dp1
S'org.robofab.postScriptHintData'
p2
(dp3
s."
LayerCount: 2
Fore
SplineSet
62 100 m 1
 134 100 l 1
 318 579 l 1
 249 579 l 1
 62 100 l 1
EndSplineSet
Refer: 261 61 N 1 0 0 1 -118 0 2
EndChar

StartChar: numbersign
Encoding: 35 35 354
Width: 626
VWidth: 0
Flags: HW
PickledData: "(dp1
S'org.robofab.postScriptHintData'
p2
(dp3
s."
LayerCount: 2
Fore
SplineSet
226 290 m 1
 253 444 l 1
 400 444 l 1
 372 290 l 1
 226 290 l 1
88 0 m 1
 175 0 l 1
 216 232 l 1
 361 232 l 1
 319 0 l 1
 406 0 l 1
 447 232 l 1
 573 232 l 1
 573 290 l 1
 457 290 l 1
 484 444 l 1
 585 444 l 1
 585 502 l 1
 495 502 l 1
 531 706 l 1
 448 706 l 1
 411 502 l 1
 264 502 l 1
 300 706 l 1
 217 706 l 1
 180 502 l 1
 54 502 l 1
 54 444 l 1
 169 444 l 1
 141 290 l 1
 42 290 l 1
 42 232 l 1
 130 232 l 1
 88 0 l 1
EndSplineSet
EndChar

StartChar: o
Encoding: 111 111 355
Width: 573
VWidth: 0
Flags: HW
PickledData: "(dp1
S'org.robofab.postScriptHintData'
p2
(dp3
s."
AnchorPoint: "top" 286 518 basechar 0
AnchorPoint: "ogonek" 310 0 basechar 0
AnchorPoint: "bot" 290 0 basechar 0
LayerCount: 2
Fore
SplineSet
287 -11 m 0
 441 -11 501 58 501 154 c 2
 501 362 l 2
 501 458 441 527 287 527 c 0
 131 527 72 458 72 362 c 2
 72 154 l 2
 72 58 131 -11 287 -11 c 0
287 60 m 0
 214 60 164 82 164 146 c 2
 164 370 l 2
 164 434 214 457 287 457 c 0
 359 457 409 434 409 370 c 2
 409 146 l 2
 409 82 359 60 287 60 c 0
EndSplineSet
EndChar

StartChar: oe
Encoding: 339 339 362
Width: 846
VWidth: 0
Flags: HW
PickledData: "(dp1
S'org.robofab.postScriptHintData'
p2
(dp3
s."
AnchorPoint: "top" 423 0 basechar 0
LayerCount: 2
Fore
SplineSet
478 309 m 1
 478 371 l 2
 478 435 512 458 585 458 c 0
 656 458 694 442 694 380 c 2
 694 309 l 1
 478 309 l 1
278 59 m 0
 206 59 165 83 165 147 c 2
 165 373 l 2
 165 437 210 458 278 458 c 0
 349 458 386 434 386 373 c 2
 386 147 l 2
 386 84 346 59 278 59 c 0
278 -10 m 0
 357 -10 401 17 431 60 c 1
 462 18 515 -10 585 -10 c 0
 727 -10 773 36 783 162 c 1
 700 162 l 1
 694 73 666 59 585 59 c 0
 513 59 478 91 478 160 c 2
 478 247 l 1
 783 247 l 1
 783 370 l 2
 783 468 720 527 585 527 c 0
 514 527 463 509 431 464 c 1
 397 509 345 527 278 527 c 0
 150 527 73 463 73 365 c 2
 73 155 l 2
 73 59 124 -10 278 -10 c 0
EndSplineSet
EndChar

StartChar: ogonek
Encoding: 731 731 363
Width: 250
VWidth: 0
Flags: HW
PickledData: "(dp1
S'org.robofab.postScriptHintData'
p2
(dp3
s."
AnchorPoint: "ogonek" 157 0 mark 0
LayerCount: 2
Fore
SplineSet
199 -232 m 1
 199 -185 l 1
 137 -185 116 -157 116 -120 c 0
 116 -78 142 -26 175 5 c 1
 145 5 l 1
 82 -49 56 -98 56 -137 c 0
 56 -195 112 -232 199 -232 c 1
EndSplineSet
EndChar

StartChar: one
Encoding: 49 49 368
Width: 610
VWidth: 0
Flags: HW
PickledData: "(dp1
S'org.robofab.postScriptHintData'
p2
(dp3
s."
LayerCount: 2
Fore
SplineSet
101 0 m 1
 567 0 l 1
 567 76 l 1
 395 76 l 1
 395 706 l 1
 314 706 l 1
 105 682 l 1
 114 604 l 1
 296 624 l 1
 296 76 l 1
 101 76 l 1
 101 0 l 1
EndSplineSet
EndChar

StartChar: onehalf
Encoding: 189 189 369
Width: 999
VWidth: 0
Flags: HW
PickledData: "(dp1
S'org.robofab.postScriptHintData'
p2
(dp3
s."
LayerCount: 2
Fore
SplineSet
335 0 m 1
 400 0 l 1
 731 706 l 1
 669 706 l 1
 335 0 l 1
80 319 m 1
 391 319 l 1
 391 369 l 1
 278 369 l 1
 278 735 l 1
 226 735 l 1
 83 719 l 1
 89 668 l 1
 214 681 l 1
 214 369 l 1
 80 369 l 1
 80 319 l 1
669 1 m 1
 919 1 l 1
 919 49 l 1
 738 49 l 1
 842 166 l 2
 882 211 917 242 917 305 c 0
 917 370 876 423 788 423 c 0
 705 423 650 385 650 295 c 1
 708 295 l 1
 708 361 729 374 789 374 c 0
 839 374 860 351 860 305 c 0
 860 265 843 246 802 202 c 1
 664 46 l 1
 669 1 l 1
EndSplineSet
EndChar

StartChar: onequarter
Encoding: 188 188 370
Width: 999
VWidth: 0
Flags: HW
PickledData: "(dp1
S'org.robofab.postScriptHintData'
p2
(dp3
s."
LayerCount: 2
Fore
SplineSet
335 0 m 1
 400 0 l 1
 731 706 l 1
 669 706 l 1
 335 0 l 1
80 319 m 1
 391 319 l 1
 391 369 l 1
 278 369 l 1
 278 735 l 1
 226 735 l 1
 83 719 l 1
 89 668 l 1
 214 681 l 1
 214 369 l 1
 80 369 l 1
 80 319 l 1
808 0 m 1
 863 0 l 1
 863 101 l 1
 934 101 l 1
 934 146 l 1
 863 146 l 1
 863 260 l 1
 808 260 l 1
 808 146 l 1
 670 146 l 1
 840 436 l 1
 771 436 l 1
 596 146 l 1
 596 101 l 1
 808 101 l 1
 808 0 l 1
EndSplineSet
EndChar

StartChar: uni00B9
Encoding: 185 185 371
Width: 512
VWidth: 0
Flags: HW
PickledData: "(dp1
S'org.robofab.postScriptHintData'
p2
(dp3
s."
LayerCount: 2
Fore
SplineSet
101 339 m 1
 412 339 l 1
 412 388 l 1
 299 388 l 1
 299 754 l 1
 247 754 l 1
 104 738 l 1
 110 688 l 1
 235 700 l 1
 235 388 l 1
 101 388 l 1
 101 339 l 1
EndSplineSet
EndChar

StartChar: oslash
Encoding: 248 248 375
Width: 573
VWidth: 0
Flags: HW
PickledData: "(dp1
S'org.robofab.postScriptHintData'
p2
(dp3
s."
AnchorPoint: "top" 287 518 basechar 0
LayerCount: 2
Fore
SplineSet
339.908726341 451.627124229 m 1
 200.118202767 77.7933755806 l 1
 177.269925294 91.2051788762 164 113.029220815 164 146 c 2
 164 370 l 2
 164 434 214 457 287 457 c 0
 306.419857964 457 324.239237642 455.326772701 339.908726341 451.627124229 c 1
382.457108501 432.109196203 m 1
 399.362555961 418.293360364 409 398.098032238 409 370 c 2
 409 146 l 2
 409 82 359 60 287 60 c 0
 271.924020864 60 257.829005958 60.9383136108 244.952777139 62.9911051713 c 1
 382.457108501 432.109196203 l 1
287 -11 m 0
 441 -11 501 58 501 154 c 2
 501 362 l 2
 501 426.320383183 474.065679083 478.520321954 409.970912487 505.967544546 c 1
 445 600 l 1
 401 615 l 1
 365.365524759 519.704774544 l 1
 342.531254895 524.469960001 316.488988027 527 287 527 c 0
 131 527 72 458 72 362 c 2
 72 154 l 2
 72 86.3312420493 101.314733871 32.0777012937 173.252867214 5.94895550311 c 1
 137 -91 l 1
 182 -106 l 1
 219.306199581 -5.85484066737 l 1
 239.483058386 -9.22729561944 261.995497853 -11 287 -11 c 0
EndSplineSet
EndChar

StartChar: p
Encoding: 112 112 378
Width: 584
VWidth: 0
Flags: HW
PickledData: "(dp1
S'org.robofab.postScriptHintData'
p2
(dp3
s."
AnchorPoint: "top" 316 518 basechar 0
LayerCount: 2
Fore
SplineSet
299 60 m 0
 246 60 206 74 183 87 c 1
 183 402 l 1
 191 415 237 457 302 457 c 0
 369 457 421 425 421 363 c 2
 421 158 l 2
 421 95 371 60 299 60 c 0
91 -199 m 1
 183 -199 l 1
 183 17 l 1
 208 4 247 -11 305 -11 c 0
 440 -11 513 64 513 168 c 2
 513 356 l 2
 513 456 448 527 316 527 c 0
 257 527 201 503 174 479 c 1
 163 518 l 1
 91 518 l 1
 91 -199 l 1
EndSplineSet
EndChar

StartChar: paragraph
Encoding: 182 182 379
Width: 610
VWidth: 0
Flags: HW
PickledData: "(dp1
S'org.robofab.postScriptHintData'
p2
(dp3
s."
LayerCount: 2
Fore
SplineSet
262 -103 m 1
 335 -103 l 1
 335 653 l 1
 403 653 l 1
 403 -103 l 1
 469 -103 l 1
 469 706 l 1
 279 706 l 2
 184 706 82 669 82 564 c 0
 82 476 178 427 262 425 c 1
 262 -103 l 1
EndSplineSet
EndChar

StartChar: parenleft
Encoding: 40 40 380
Width: 375
VWidth: 0
Flags: HW
PickledData: "(dp1
S'org.robofab.postScriptHintData'
p2
(dp3
s."
LayerCount: 2
Fore
SplineSet
314 -73 m 1
 314 0 l 1
 178 0 178 75 178 200 c 2
 178 486 l 2
 178 611 178 691 314 691 c 1
 314 765 l 1
 85 765 84 617 84 468 c 2
 84 215 l 2
 84 68 85 -73 314 -73 c 1
EndSplineSet
EndChar

StartChar: parenright
Encoding: 41 41 381
Width: 375
VWidth: 0
Flags: HW
PickledData: "(dp1
S'org.robofab.postScriptHintData'
p2
(dp3
s."
LayerCount: 2
Fore
SplineSet
61 -73 m 1
 290 -73 291 75 291 224 c 2
 291 477 l 2
 291 624 290 765 61 765 c 1
 61 692 l 1
 197 692 197 617 197 492 c 2
 197 206 l 2
 197 81 197 0 61 0 c 1
 61 -73 l 1
EndSplineSet
EndChar

StartChar: partialdiff
Encoding: 8706 8706 382
Width: 586
VWidth: 0
Flags: HW
PickledData: "(dp1
S'org.robofab.postScriptHintData'
p2
(dp3
s."
LayerCount: 2
Fore
SplineSet
236 48 m 0
 200 48 182 83 182 130 c 0
 182 232 264 394 418 404 c 1
 408 264 354 48 236 48 c 0
229 -10 m 0
 401 -10 516 188 516 446 c 0
 516 647 409 736 283 736 c 0
 230 736 174 720 120 691 c 1
 132 661 l 1
 168 678 206 687 242 687 c 0
 339 687 421 621 421 473 c 2
 421 455 l 1
 198 452 74 278 74 144 c 0
 74 60 124 -10 229 -10 c 0
EndSplineSet
EndChar

StartChar: percent
Encoding: 37 37 384
Width: 1000
VWidth: 0
Flags: HW
PickledData: "(dp1
S'org.robofab.postScriptHintData'
p2
(dp3
s."
LayerCount: 2
Fore
SplineSet
326 0 m 1
 401 0 l 1
 664 706 l 1
 591 706 l 1
 326 0 l 1
769 -9 m 0
 881 -9 916 64 916 176 c 2
 916 202 l 1
 915 316 881 383 769 383 c 0
 656 383 623 316 623 202 c 2
 623 176 l 2
 623 65 657 -9 769 -9 c 0
769 47 m 0
 702 47 693 98 693 167 c 2
 693 214 l 2
 693 280 699 326 769 326 c 0
 839 326 845 280 845 213 c 2
 845 167 l 2
 845 98 836 47 769 47 c 0
229 331 m 0
 341 331 377 404 377 516 c 2
 377 542 l 1
 376 656 341 723 229 723 c 0
 116 723 84 656 84 542 c 2
 84 516 l 2
 84 405 117 331 229 331 c 0
229 388 m 0
 162 388 154 439 154 508 c 2
 154 554 l 2
 154 620 159 667 229 667 c 0
 299 667 306 620 306 553 c 2
 306 508 l 2
 306 439 296 388 229 388 c 0
EndSplineSet
EndChar

StartChar: period
Encoding: 46 46 385
Width: 306
VWidth: 0
Flags: HW
PickledData: "(dp1
S'org.robofab.postScriptHintData'
p2
(dp3
s."
LayerCount: 2
Fore
SplineSet
91 0 m 1
 216 0 l 1
 216 118 l 1
 91 118 l 1
 91 0 l 1
EndSplineSet
EndChar

StartChar: periodcentered
Encoding: 183 183 386
Width: 358
VWidth: 0
Flags: HW
PickledData: "(dp1
S'org.robofab.postScriptHintData'
p2
(dp3
s."
AnchorPoint: "mid" 51 349 mark 0
LayerCount: 2
Fore
SplineSet
209 304 m 1
 310 304 l 1
 310 404 l 1
 209 404 l 1
 209 304 l 1
EndSplineSet
EndChar

StartChar: perthousand
Encoding: 8240 8240 387
Width: 1409
VWidth: 0
Flags: HW
PickledData: "(dp1
S'org.robofab.postScriptHintData'
p2
(dp3
s."
LayerCount: 2
Fore
SplineSet
344 0 m 1
 419 0 l 1
 682 706 l 1
 609 706 l 1
 344 0 l 1
1167 -9 m 0
 1279 -9 1314 64 1314 176 c 2
 1314 202 l 1
 1313 316 1279 383 1167 383 c 0
 1054 383 1021 316 1021 202 c 2
 1021 176 l 2
 1021 65 1055 -9 1167 -9 c 0
1167 47 m 0
 1100 47 1091 98 1091 167 c 2
 1091 214 l 2
 1091 280 1097 326 1167 326 c 0
 1237 326 1244 280 1244 213 c 2
 1244 167 l 2
 1244 98 1234 47 1167 47 c 0
787 -9 m 0
 899 -9 934 64 934 176 c 2
 934 202 l 1
 933 316 899 383 787 383 c 0
 674 383 641 316 641 202 c 2
 641 176 l 2
 641 65 675 -9 787 -9 c 0
787 47 m 0
 720 47 711 98 711 167 c 2
 711 214 l 2
 711 280 717 326 787 326 c 0
 857 326 863 280 863 213 c 2
 863 167 l 2
 863 98 854 47 787 47 c 0
248 321 m 0
 360 321 395 394 395 506 c 2
 395 533 l 1
 394 647 360 713 248 713 c 0
 135 713 102 646 102 532 c 2
 102 506 l 2
 102 395 136 321 248 321 c 0
248 378 m 0
 181 378 172 429 172 498 c 2
 172 544 l 2
 172 610 178 657 248 657 c 0
 318 657 324 610 324 543 c 2
 324 498 l 2
 324 429 315 378 248 378 c 0
EndSplineSet
EndChar

StartChar: pi
Encoding: 960 960 388
Width: 576
VWidth: 0
Flags: HW
PickledData: "(dp1
S'org.robofab.postScriptHintData'
p2
(dp3
s."
LayerCount: 2
Fore
SplineSet
15 427 m 1
 15 427 68 457 123 457 c 1
 123 0 l 1
 214 0 l 1
 214 457 l 1
 364 457 l 1
 364 130 l 2
 364 15 410 -11 510 -11 c 1
 533 61 l 1
 467 76 456 82 456 163 c 2
 456 457 l 1
 544 457 l 1
 544 518 l 1
 106 518 l 2
 47 518 15 488 15 488 c 1
 15 427 l 1
EndSplineSet
EndChar

StartChar: plus
Encoding: 43 43 389
Width: 500
VWidth: 0
Flags: HW
PickledData: "(dp1
S'org.robofab.postScriptHintData'
p2
(dp3
s."
LayerCount: 2
Fore
SplineSet
213 76 m 1
 287 76 l 1
 287 241 l 1
 421 241 l 1
 421 313 l 1
 287 313 l 1
 287 473 l 1
 213 473 l 1
 213 313 l 1
 79 313 l 1
 79 241 l 1
 213 241 l 1
 213 76 l 1
EndSplineSet
EndChar

StartChar: plusminus
Encoding: 177 177 390
Width: 508
VWidth: 0
Flags: HW
PickledData: "(dp1
S'org.robofab.postScriptHintData'
p2
(dp3
s."
LayerCount: 2
Fore
SplineSet
101 0 m 1
 407 0 l 1
 407 59 l 1
 101 59 l 1
 101 0 l 1
225 163 m 1
 284 163 l 1
 284 298 l 1
 407 298 l 1
 407 354 l 1
 284 354 l 1
 284 484 l 1
 225 484 l 1
 225 354 l 1
 101 354 l 1
 101 298 l 1
 225 298 l 1
 225 163 l 1
EndSplineSet
EndChar

StartChar: product
Encoding: 8719 8719 391
Width: 875
VWidth: 0
Flags: HW
PickledData: "(dp1
S'org.robofab.postScriptHintData'
p2
(dp3
s."
LayerCount: 2
Fore
SplineSet
438 -7 m 0
 641 -7 797 148 797 353 c 0
 797 557 641 711 438 711 c 0
 236 711 78 557 78 353 c 0
 78 148 236 -7 438 -7 c 0
438 40 m 0
 260 40 131 175 131 353 c 0
 131 531 260 665 438 665 c 0
 617 665 745 531 745 353 c 0
 745 175 617 40 438 40 c 0
386 362 m 1
 386 519 l 1
 481 519 l 2
 539 519 543 469 543 440 c 2
 543 428 l 2
 543 397 533 362 477 362 c 2
 386 362 l 1
322 156 m 1
 386 156 l 1
 386 318 l 1
 473 318 l 2
 580 318 608 372 608 437 c 2
 608 443 l 1
 606 528 556 563 479 563 c 2
 322 563 l 1
 322 156 l 1
EndSplineSet
EndChar

StartChar: q
Encoding: 113 113 392
Width: 585
VWidth: 0
Flags: HW
PickledData: "(dp1
S'org.robofab.postScriptHintData'
p2
(dp3
s."
LayerCount: 2
Fore
SplineSet
286 60 m 0
 219 60 164 77 164 139 c 2
 164 365 l 2
 164 428 215 457 287 457 c 0
 369 457 403 425 403 396 c 2
 403 98 l 1
 398 88 354 60 286 60 c 0
403 -199 m 1
 495 -199 l 1
 495 518 l 1
 403 518 l 1
 403 476 l 1
 388 500 326 527 273 527 c 0
 138 527 72 459 72 355 c 2
 72 153 l 2
 72 53 148 -11 280 -11 c 0
 316 -11 371 -1 403 23 c 1
 403 -199 l 1
EndSplineSet
EndChar

StartChar: question
Encoding: 63 63 393
Width: 605
VWidth: 0
Flags: HW
PickledData: "(dp1
S'org.robofab.postScriptHintData'
p2
(dp3
s."
LayerCount: 2
Fore
SplineSet
215 0 m 1
 314 0 l 1
 314 101 l 1
 215 101 l 1
 215 0 l 1
228 210 m 1
 306 210 l 1
 407 317 l 2
 483 397 535 455 535 544 c 0
 535 624 491 717 321 717 c 0
 154 717 87 671 87 523 c 2
 87 507 l 1
 184 507 l 1
 184 533 l 2
 184 598 216 638 321 638 c 0
 408 638 431 597 431 539 c 0
 431 482 403 444 361 388 c 2
 228 210 l 1
EndSplineSet
EndChar

StartChar: quotedbl
Encoding: 34 34 395
Width: 434
VWidth: 0
Flags: HW
PickledData: "(dp1
S'org.robofab.postScriptHintData'
p2
(dp3
s."
LayerCount: 2
Fore
SplineSet
270 454 m 1
 325 454 l 1
 349 735 l 1
 249 735 l 1
 270 454 l 1
107 454 m 1
 162 454 l 1
 186 735 l 1
 86 735 l 1
 107 454 l 1
EndSplineSet
EndChar

StartChar: quotedblbase
Encoding: 8222 8222 396
Width: 576
VWidth: 0
Flags: HW
PickledData: "(dp1
S'org.robofab.postScriptHintData'
p2
(dp3
s."
LayerCount: 2
Fore
SplineSet
135 -165 m 1
 163 -139 219 -69 219 24 c 2
 219 114 l 1
 94 114 l 1
 94 0 l 1
 163 0 l 1
 163 -64 119 -117 96 -144 c 1
 135 -165 l 1
336 -165 m 1
 364 -139 420 -69 420 24 c 2
 420 114 l 1
 295 114 l 1
 295 0 l 1
 364 0 l 1
 364 -64 320 -117 297 -144 c 1
 336 -165 l 1
EndSplineSet
EndChar

StartChar: quotedblleft
Encoding: 8220 8220 397
Width: 576
VWidth: 0
Flags: HW
PickledData: "(dp1
S'org.robofab.postScriptHintData'
p2
(dp3
s."
LayerCount: 2
Fore
SplineSet
441 717 m 1
 413 691 357 620 357 527 c 2
 357 438 l 1
 483 438 l 1
 483 552 l 1
 414 552 l 1
 414 616 458 668 481 695 c 1
 441 717 l 1
240 717 m 1
 212 691 156 620 156 527 c 2
 156 438 l 1
 282 438 l 1
 282 552 l 1
 213 552 l 1
 213 616 257 668 280 695 c 1
 240 717 l 1
EndSplineSet
EndChar

StartChar: quotedblright
Encoding: 8221 8221 398
Width: 576
VWidth: 0
Flags: HW
PickledData: "(dp1
S'org.robofab.postScriptHintData'
p2
(dp3
s."
LayerCount: 2
Fore
SplineSet
336 438 m 1
 364 464 420 534 420 627 c 2
 420 717 l 1
 295 717 l 1
 295 603 l 1
 364 603 l 1
 364 539 320 486 297 459 c 1
 336 438 l 1
135 438 m 1
 163 464 219 534 219 627 c 2
 219 717 l 1
 94 717 l 1
 94 603 l 1
 163 603 l 1
 163 539 119 486 96 459 c 1
 135 438 l 1
EndSplineSet
EndChar

StartChar: quoteleft
Encoding: 8216 8216 399
Width: 375
VWidth: 0
Flags: HW
PickledData: "(dp1
S'org.robofab.postScriptHintData'
p2
(dp3
s."
LayerCount: 2
Fore
SplineSet
240 717 m 1
 212 691 156 620 156 527 c 2
 156 438 l 1
 282 438 l 1
 282 552 l 1
 213 552 l 1
 213 616 257 668 280 695 c 1
 240 717 l 1
EndSplineSet
EndChar

StartChar: quoteright
Encoding: 8217 8217 400
Width: 375
VWidth: 0
Flags: HW
PickledData: "(dp1
S'org.robofab.postScriptHintData'
p2
(dp3
s."
LayerCount: 2
Fore
SplineSet
135 438 m 1
 163 464 219 534 219 627 c 2
 219 717 l 1
 94 717 l 1
 94 603 l 1
 163 603 l 1
 163 539 119 486 96 459 c 1
 135 438 l 1
EndSplineSet
EndChar

StartChar: quotesinglbase
Encoding: 8218 8218 401
Width: 375
VWidth: 0
Flags: HW
PickledData: "(dp1
S'org.robofab.postScriptHintData'
p2
(dp3
s."
LayerCount: 2
Fore
SplineSet
135 -165 m 1
 163 -139 219 -69 219 24 c 2
 219 114 l 1
 94 114 l 1
 94 0 l 1
 163 0 l 1
 163 -64 119 -117 96 -144 c 1
 135 -165 l 1
EndSplineSet
EndChar

StartChar: quotesingle
Encoding: 39 39 402
Width: 437
VWidth: 0
Flags: HW
PickledData: "(dp1
S'org.robofab.postScriptHintData'
p2
(dp3
s."
LayerCount: 2
Fore
SplineSet
109 454 m 1
 164 454 l 1
 188 735 l 1
 87 735 l 1
 109 454 l 1
EndSplineSet
EndChar

StartChar: r
Encoding: 114 114 403
Width: 389
VWidth: 0
Flags: HW
PickledData: "(dp1
S'org.robofab.postScriptHintData'
p2
(dp3
s."
AnchorPoint: "top" 233 518 basechar 0
AnchorPoint: "bot" 140 0 basechar 0
LayerCount: 2
Fore
SplineSet
91 0 m 1
 183 0 l 1
 183 353 l 2
 183 405 271 446 359 446 c 1
 362 525 l 1
 294 525 208 502 183 435 c 1
 183 518 l 1
 91 518 l 1
 91 0 l 1
EndSplineSet
EndChar

StartChar: radical
Encoding: 8730 8730 405
Width: 609
VWidth: 0
Flags: HW
PickledData: "(dp1
S'org.robofab.postScriptHintData'
p2
(dp3
s."
LayerCount: 2
Fore
SplineSet
48 216 m 1
 106 216 l 1
 218 0 l 1
 305 0 l 1
 604 735 l 1
 538 735 l 1
 266 78 l 1
 175 270 l 1
 48 270 l 1
 48 216 l 1
EndSplineSet
EndChar

StartChar: registered
Encoding: 174 174 409
Width: 871
VWidth: 0
Flags: HW
PickledData: "(dp1
S'org.robofab.postScriptHintData'
p2
(dp3
s."
LayerCount: 2
Fore
SplineSet
436 -7 m 0
 639 -7 795 148 795 353 c 0
 795 557 639 711 436 711 c 0
 234 711 76 557 76 353 c 0
 76 148 234 -7 436 -7 c 0
437 40 m 0
 259 40 129 175 129 353 c 0
 129 531 259 665 437 665 c 0
 616 665 743 531 743 353 c 0
 743 175 616 40 437 40 c 0
355 362 m 1
 355 519 l 1
 490 519 l 2
 548 519 552 469 552 440 c 2
 552 428 l 2
 552 397 541 362 485 362 c 2
 355 362 l 1
291 156 m 1
 355 156 l 1
 355 318 l 1
 481 318 l 1
 569 156 l 1
 632 156 l 1
 542 325 l 1
 587 337 616 372 616 437 c 2
 616 443 l 1
 614 528 565 563 488 563 c 2
 291 563 l 1
 291 156 l 1
EndSplineSet
EndChar

StartChar: ring
Encoding: 730 730 410
Width: 250
VWidth: 0
Flags: HW
PickledData: "(dp1
S'org.robofab.postScriptHintData'
p2
(dp3
s."
AnchorPoint: "top" 125 518 mark 0
LayerCount: 2
Fore
SplineSet
125 570 m 0
 174 570 220 597 220 657 c 0
 220 717 174 744 125 744 c 0
 76 744 30 717 30 657 c 0
 30 597 76 570 125 570 c 0
125 602 m 0
 97 602 72 615 72 658 c 0
 72 700 98 712 125 712 c 0
 153 712 178 699 178 657 c 0
 178 615 153 602 125 602 c 0
EndSplineSet
EndChar

StartChar: s
Encoding: 115 115 412
Width: 479
VWidth: 0
Flags: HW
PickledData: "(dp1
S'org.robofab.postScriptHintData'
p2
(dp3
sS'com.typemytype.robofont.layerData'
p4
(dp5
s."
AnchorPoint: "top" 254 518 basechar 0
AnchorPoint: "bot" 251 0 basechar 0
LayerCount: 2
Fore
SplineSet
256 -11 m 0
 379 -11 426 56 426 138 c 0
 426 219 409 252 322 286 c 2
 201 333 l 2
 165 346 156 358 156 390 c 0
 156 437 172 457 256 457 c 0
 299 457 362 441 392 429 c 1
 413 499 l 1
 375 514 312 527 239 527 c 0
 111 527 71 473 71 386 c 0
 71 322 96 288 172 262 c 1
 295 216 l 2
 344 198 348 177 348 137 c 0
 348 94 326 60 244 60 c 0
 174 60 113 86 90 99 c 1
 67 31 l 1
 90 18 159 -11 256 -11 c 0
EndSplineSet
EndChar

StartChar: section
Encoding: 167 167 420
Width: 489
VWidth: 0
Flags: HW
PickledData: "(dp1
S'org.robofab.postScriptHintData'
p2
(dp3
s."
LayerCount: 2
Fore
SplineSet
350 279 m 1
 208 333 l 2
 172 347 162 363 162 394 c 0
 162 415 173 451 178 451 c 1
 305 406 l 2
 355 388 359 367 359 327 c 0
 359 311 357 294 350 279 c 1
70 31 m 1
 94 18 165 -11 265 -11 c 0
 391 -11 439 56 439 138 c 0
 439 183 434 215 413 238 c 1
 431 263 439 294 439 328 c 0
 439 409 422 441 333 475 c 2
 208 523 l 2
 172 537 162 547 162 578 c 0
 162 626 178 646 265 646 c 0
 309 646 374 630 405 618 c 1
 427 688 l 1
 387 703 322 717 247 717 c 0
 115 717 74 663 74 575 c 0
 74 535 84 508 109 487 c 1
 83 462 74 430 74 387 c 0
 74 322 100 290 178 262 c 2
 305 216 l 2
 355 198 359 177 359 137 c 0
 359 94 336 60 252 60 c 0
 180 60 117 86 93 99 c 1
 70 31 l 1
EndSplineSet
EndChar

StartChar: seven
Encoding: 55 55 422
Width: 610
VWidth: 0
Flags: HW
PickledData: "(dp1
S'org.robofab.postScriptHintData'
p2
(dp3
s."
LayerCount: 2
Fore
SplineSet
180 0 m 1
 283 0 l 1
 522 629 l 1
 522 706 l 1
 92 706 l 1
 92 630 l 1
 424 630 l 1
 180 0 l 1
EndSplineSet
EndChar

StartChar: six
Encoding: 54 54 423
Width: 610
VWidth: 0
Flags: HW
PickledData: "(dp1
S'org.robofab.postScriptHintData'
p2
(dp3
s."
LayerCount: 2
Fore
SplineSet
317 68 m 0
 229 68 178 97 178 208 c 0
 178 316 229 349 317 349 c 0
 404 349 461 326 461 206 c 0
 461 96 405 68 317 68 c 0
316 -11 m 0
 451 -11 553 51 553 206 c 0
 553 367 464 429 319 429 c 0
 290 429 253 420 232 411 c 1
 407 706 l 1
 309 706 l 1
 156 438 l 1
 110 355 87 277 87 208 c 0
 87 52 181 -11 316 -11 c 0
EndSplineSet
EndChar

StartChar: slash
Encoding: 47 47 424
Width: 375
VWidth: 0
Flags: HW
PickledData: "(dp1
S'org.robofab.postScriptHintData'
p2
(dp3
s."
LayerCount: 2
Fore
SplineSet
31 0 m 1
 123 0 l 1
 344 735 l 1
 254 735 l 1
 31 0 l 1
EndSplineSet
EndChar

StartChar: uni00AD
Encoding: 173 173 426
Width: 500
VWidth: 0
Flags: HW
AnchorPoint: "mid" 248 277 mark 0
LayerCount: 2
Fore
SplineSet
84 244 m 1
 406 244 l 1
 406 313 l 1
 84 313 l 1
 84 244 l 1
EndSplineSet
EndChar

StartChar: sterling
Encoding: 163 163 428
Width: 621
VWidth: 0
Flags: HW
PickledData: "(dp1
S'org.robofab.postScriptHintData'
p2
(dp3
s."
LayerCount: 2
Fore
SplineSet
127 0 m 1
 527 0 l 1
 527 79 l 1
 226 79 l 1
 251 326 l 1
 474 326 l 1
 474 395 l 1
 258 395 l 1
 273 539 l 2
 282 622 325 648 376 648 c 0
 425 648 481 624 500 615 c 1
 526 683 l 1
 464 713 410 725 365 725 c 0
 251 725 188 644 179 549 c 2
 164 395 l 1
 81 395 l 1
 81 326 l 1
 158 326 l 1
 127 0 l 1
EndSplineSet
EndChar

StartChar: summation
Encoding: 8721 8721 429
Width: 548
VWidth: 0
Flags: HW
PickledData: "(dp1
S'org.robofab.postScriptHintData'
p2
(dp3
s."
LayerCount: 2
Fore
SplineSet
525 0 m 1
 525 79 l 1
 157 79 l 1
 379 360 l 1
 379 394 l 1
 155 628 l 1
 525 628 l 1
 525 706 l 1
 55 706 l 1
 55 634 l 1
 292 372 l 1
 55 76 l 1
 55 0 l 1
 525 0 l 1
EndSplineSet
EndChar

StartChar: t
Encoding: 116 116 430
Width: 406
VWidth: 0
Flags: HW
PickledData: "(dp1
S'org.robofab.postScriptHintData'
p2
(dp3
s."
AnchorPoint: "bot" 221 16 basechar 0
AnchorPoint: "top" 218 625 basechar 0
AnchorPoint: "mid" 185 292 basechar 0
AnchorPoint: "caron.alt" 121 518 basechar 0
LayerCount: 2
Fore
SplineSet
330 -4 m 2
 344 -4 l 1
 354 73 l 1
 343 73 l 2
 256 73 217 86 217 154 c 2
 217 448 l 1
 347 448 l 1
 347 518 l 1
 217 518 l 1
 217 678 l 1
 140 678 l 1
 129 518 l 1
 39 518 l 1
 39 448 l 1
 125 448 l 1
 125 148 l 2
 125 34 188 -4 330 -4 c 2
EndSplineSet
EndChar

StartChar: tbar
Encoding: 359 359 431
Width: 406
VWidth: 0
Flags: HW
PickledData: "(dp1
S'org.robofab.postScriptHintData'
p2
(dp3
s."
LayerCount: 2
Fore
SplineSet
330 -4 m 2
 344 -4 l 1
 354 73 l 1
 343 73 l 2
 256 73 217 86 217 154 c 2
 217 256 l 1
 313 256 l 1
 313 328 l 1
 217 328 l 1
 217 448 l 1
 347 448 l 1
 347 518 l 1
 217 518 l 1
 217 678 l 1
 140 678 l 1
 129 518 l 1
 39 518 l 1
 39 448 l 1
 125 448 l 1
 125 328 l 1
 55 328 l 1
 55 256 l 1
 125 256 l 1
 125 148 l 2
 125 34 188 -4 330 -4 c 2
EndSplineSet
EndChar

StartChar: thorn
Encoding: 254 254 435
Width: 583
VWidth: 0
Flags: HW
PickledData: "(dp1
S'org.robofab.postScriptHintData'
p2
(dp3
s."
LayerCount: 2
Fore
SplineSet
294 57 m 0
 241 57 201 74 178 87 c 1
 178 402 l 1
 186 415 233 456 298 456 c 0
 365 456 418 424 418 362 c 2
 418 158 l 2
 418 95 366 57 294 57 c 0
86 -199 m 1
 178 -199 l 1
 178 17 l 1
 203 4 242 -12 300 -12 c 0
 435 -12 510 64 510 168 c 2
 510 356 l 2
 510 456 444 525 312 525 c 0
 259 525 207 507 178 485 c 1
 178 735 l 1
 87 735 l 1
 86 -199 l 1
EndSplineSet
EndChar

StartChar: three
Encoding: 51 51 436
Width: 610
VWidth: 0
Flags: HW
PickledData: "(dp1
S'org.robofab.postScriptHintData'
p2
(dp3
s."
LayerCount: 2
Fore
SplineSet
332 -11 m 0
 471 -11 550 59 550 194 c 0
 550 313 503 358 422 375 c 1
 504 388 536 440 536 533 c 0
 536 661 452 717 330 717 c 0
 205 717 106 680 106 500 c 1
 200 500 l 1
 200 621 243 638 330 638 c 0
 414 638 444 597 444 531 c 0
 444 451 438 410 287 410 c 1
 287 337 l 1
 433 337 457 304 457 195 c 0
 457 112 421 68 337 68 c 0
 240 68 203 92 195 210 c 1
 102 210 l 1
 119 44 175 -11 332 -11 c 0
EndSplineSet
EndChar

StartChar: threequarters
Encoding: 190 190 437
Width: 999
VWidth: 0
Flags: HW
PickledData: "(dp1
S'org.robofab.postScriptHintData'
p2
(dp3
s."
LayerCount: 2
Fore
SplineSet
335 0 m 1
 400 0 l 1
 731 706 l 1
 669 706 l 1
 335 0 l 1
808 0 m 1
 863 0 l 1
 863 101 l 1
 934 101 l 1
 934 146 l 1
 863 146 l 1
 863 260 l 1
 808 260 l 1
 808 146 l 1
 670 146 l 1
 840 436 l 1
 771 436 l 1
 596 146 l 1
 596 101 l 1
 808 101 l 1
 808 0 l 1
264 319 m 0
 361 319 414 360 414 438 c 0
 414 507 381 532 324 542 c 1
 382 550 404 579 404 633 c 0
 404 707 345 740 260 740 c 0
 172 740 106 721 104 612 c 1
 169 612 l 1
 169 688 199 694 260 694 c 0
 319 694 339 671 339 632 c 0
 339 586 334 562 229 562 c 1
 229 521 l 1
 332 521 348 500 348 438 c 0
 348 390 327 364 267 364 c 0
 199 364 167 378 163 455 c 1
 97 455 l 1
 106 351 154 319 264 319 c 0
EndSplineSet
EndChar

StartChar: uni00B3
Encoding: 179 179 438
Width: 512
VWidth: 0
Flags: HW
PickledData: "(dp1
S'org.robofab.postScriptHintData'
p2
(dp3
s."
LayerCount: 2
Fore
SplineSet
272 325 m 0
 361 325 424 366 424 452 c 0
 424 514 396 546 337 559 c 1
 395 573 415 610 415 657 c 0
 415 734 346 773 272 773 c 0
 185 773 110 748 110 629 c 1
 173 629 l 1
 173 635 l 2
 173 705 209 720 271 720 c 0
 331 720 354 689 354 656 c 0
 354 614 350 583 233 583 c 2
 230 583 l 1
 230 532 l 1
 234 532 l 2
 338 532 362 508 362 448 c 0
 362 403 324 378 274 378 c 0
 214 378 169 389 169 474 c 1
 105 474 l 1
 108 356 173 325 272 325 c 0
EndSplineSet
EndChar

StartChar: tilde
Encoding: 732 732 439
Width: 250
VWidth: 0
Flags: HW
PickledData: "(dp1
S'org.robofab.postScriptHintData'
p2
(dp3
s."
AnchorPoint: "top" 125 518 mark 0
LayerCount: 2
Fore
SplineSet
71 587 m 0
 138 587 153 640 188 640 c 0
 208 640 222 624 222 594 c 1
 270 594 l 1
 270 675 238 706 179 706 c 0
 112 706 97 654 62 654 c 0
 42 654 27 669 27 699 c 1
 -20 699 l 1
 -20 618 12 587 71 587 c 0
EndSplineSet
EndChar

StartChar: trademark
Encoding: 8482 8482 440
Width: 899
VWidth: 0
Flags: HW
PickledData: "(dp1
S'org.robofab.postScriptHintData'
p2
(dp3
s."
LayerCount: 2
Fore
SplineSet
168 374 m 1
 234 374 l 1
 234 650 l 1
 338 650 l 1
 338 706 l 1
 65 706 l 1
 65 650 l 1
 168 650 l 1
 168 374 l 1
413 374 m 1
 474 374 l 1
 474 649 l 1
 561 455 l 1
 640 455 l 1
 724 649 l 1
 724 374 l 1
 786 374 l 1
 786 706 l 1
 690 706 l 1
 599 504 l 1
 509 706 l 1
 413 706 l 1
 413 374 l 1
EndSplineSet
EndChar

StartChar: two
Encoding: 50 50 441
Width: 610
VWidth: 0
Flags: HW
PickledData: "(dp1
S'org.robofab.postScriptHintData'
p2
(dp3
s."
LayerCount: 2
Fore
SplineSet
113 0 m 1
 531 0 l 1
 531 76 l 1
 215 76 l 1
 411 284 l 2
 482 359 535 407 535 517 c 0
 535 629 464 717 312 717 c 0
 169 717 80 655 80 500 c 1
 178 500 l 1
 178 615 216 638 319 638 c 0
 406 638 442 606 442 516 c 0
 442 445 413 413 342 336 c 2
 104 77 l 1
 113 0 l 1
EndSplineSet
EndChar

StartChar: uni00B2
Encoding: 178 178 442
Width: 512
VWidth: 0
Flags: HW
PickledData: "(dp1
S'org.robofab.postScriptHintData'
p2
(dp3
s."
LayerCount: 2
Fore
SplineSet
119 339 m 1
 402 339 l 1
 402 393 l 1
 198 393 l 1
 302 476 l 1
 364 531 402 569 402 644 c 0
 402 725 348 773 257 773 c 0
 165 773 98 731 99 620 c 1
 168 620 l 1
 168 702 201 722 260 722 c 0
 309 722 337 698 337 644 c 0
 337 592 318 569 264 521 c 1
 113 395 l 1
 119 339 l 1
EndSplineSet
EndChar

StartChar: u
Encoding: 117 117 443
Width: 596
VWidth: 0
Flags: HW
PickledData: "(dp1
S'org.robofab.postScriptHintData'
p2
(dp3
s."
AnchorPoint: "top" 304 518 basechar 0
AnchorPoint: "ogonek" 467 0 basechar 0
LayerCount: 2
Fore
SplineSet
263 -11 m 0
 338 -11 388 19 414 65 c 1
 424 0 l 1
 506 0 l 1
 506 518 l 1
 414 518 l 1
 414 151 l 2
 414 108 371 60 281 60 c 0
 217 60 177 90 177 141 c 2
 177 518 l 1
 85 518 l 1
 85 142 l 2
 85 60 136 -11 263 -11 c 0
EndSplineSet
EndChar

StartChar: underscore
Encoding: 95 95 455
Width: 453
VWidth: 0
Flags: HW
PickledData: "(dp1
S'org.robofab.postScriptHintData'
p2
(dp3
s."
LayerCount: 2
Fore
SplineSet
7 -51 m 1
 447 -51 l 1
 447 22 l 1
 7 22 l 1
 7 -51 l 1
EndSplineSet
EndChar

StartChar: uni0307
Encoding: 775 775 471
Width: 201
VWidth: 0
Flags: HW
PickledData: "(dp1
S'org.robofab.postScriptHintData'
p2
(dp3
s."
AnchorPoint: "top" 106 518 mark 0
LayerCount: 2
Fore
SplineSet
54 648 m 1
 148 648 l 1
 148 750 l 1
 54 750 l 1
 54 648 l 1
EndSplineSet
EndChar

StartChar: uni030F
Encoding: 783 783 472
Width: 500
VWidth: 0
Flags: HW
PickledData: "(dp1
S'org.robofab.postScriptHintData'
p2
(dp3
s."
AnchorPoint: "top" 302 518 mark 0
LayerCount: 2
Fore
SplineSet
165 631 m 1
 228 631 l 1
 160 817 l 1
 50 817 l 1
 165 631 l 1
365 631 m 1
 428 631 l 1
 360 817 l 1
 250 817 l 1
 365 631 l 1
EndSplineSet
EndChar

StartChar: uni0311
Encoding: 785 785 473
Width: 250
VWidth: 0
Flags: HW
PickledData: "(dp1
S'org.robofab.postScriptHintData'
p2
(dp3
s."
AnchorPoint: "top" 130 518 mark 0
LayerCount: 2
Fore
SplineSet
15 613 m 1
 76 613 l 1
 76 642 101 657 125 657 c 0
 149 657 174 642 174 613 c 1
 235 613 l 1
 235 669 193 717 125 717 c 0
 57 717 15 669 15 613 c 1
EndSplineSet
EndChar

StartChar: uni0358
Encoding: 856 856 476
Width: 292
VWidth: 0
Flags: HW
PickledData: "(dp1
S'org.robofab.postScriptHintData'
p2
(dp3
s."
AnchorPoint: "top" 141 518 mark 0
LayerCount: 2
Fore
SplineSet
88 648 m 1
 183 648 l 1
 183 750 l 1
 88 750 l 1
 88 648 l 1
EndSplineSet
EndChar

StartChar: v
Encoding: 118 118 481
Width: 539
VWidth: 0
Flags: HW
PickledData: "(dp1
S'org.robofab.postScriptHintData'
p2
(dp3
s."
LayerCount: 2
Fore
SplineSet
232 0 m 1
 325 0 l 1
 508 518 l 1
 418 518 l 1
 279 98 l 1
 124 518 l 1
 31 518 l 1
 232 0 l 1
EndSplineSet
EndChar

StartChar: w
Encoding: 119 119 482
Width: 788
VWidth: 0
Flags: HW
PickledData: "(dp1
S'org.robofab.postScriptHintData'
p2
(dp3
s."
AnchorPoint: "top" 396 518 basechar 0
LayerCount: 2
Fore
SplineSet
174 0 m 1
 261 0 l 1
 394 413 l 1
 526 0 l 1
 611 0 l 1
 763 518 l 1
 678 518 l 1
 567 111 l 1
 437 518 l 1
 349 518 l 1
 224 111 l 1
 109 518 l 1
 25 518 l 1
 174 0 l 1
EndSplineSet
EndChar

StartChar: x
Encoding: 120 120 487
Width: 515
VWidth: 0
Flags: HW
PickledData: "(dp1
S'org.robofab.postScriptHintData'
p2
(dp3
s."
LayerCount: 2
Fore
SplineSet
31 0 m 1
 123 0 l 1
 261 197 l 1
 399 0 l 1
 488 0 l 1
 306 261 l 1
 486 518 l 1
 397 518 l 1
 261 325 l 1
 126 518 l 1
 34 518 l 1
 215 260 l 1
 31 0 l 1
EndSplineSet
EndChar

StartChar: y
Encoding: 121 121 488
Width: 545
VWidth: 0
Flags: HW
PickledData: "(dp1
S'org.robofab.postScriptHintData'
p2
(dp3
s."
AnchorPoint: "top" 286 518 basechar 0
LayerCount: 2
Fore
SplineSet
97 -198 m 1
 249 -198 294 -137 348 22 c 2
 518 518 l 1
 425 518 l 1
 292 105 l 1
 134 518 l 1
 37 518 l 1
 250 2 l 1
 225 -92 175 -126 97 -126 c 1
 97 -198 l 1
EndSplineSet
EndChar

StartChar: yen
Encoding: 165 165 492
Width: 643
VWidth: 0
Flags: HW
PickledData: "(dp1
S'org.robofab.postScriptHintData'
p2
(dp3
s."
LayerCount: 2
Fore
SplineSet
519 273 m 1
 519 346 l 1
 411.888111888 346 l 1
 620 706 l 1
 519 706 l 1
 323 363 l 1
 127 706 l 1
 23 706 l 1
 232.79020979 346 l 1
 127 346 l 1
 127 273 l 1
 273 273 l 1
 273 195 l 1
 127 195 l 1
 127 123 l 1
 273 123 l 1
 273 0 l 1
 372 0 l 1
 372 123 l 1
 519 123 l 1
 519 195 l 1
 372 195 l 1
 372 273 l 1
 519 273 l 1
EndSplineSet
EndChar

StartChar: z
Encoding: 122 122 496
Width: 464
VWidth: 0
Flags: HW
PickledData: "(dp1
S'org.robofab.postScriptHintData'
p2
(dp3
s."
AnchorPoint: "top" 249 518 basechar 0
AnchorPoint: "bot" 253 0 basechar 0
LayerCount: 2
Fore
SplineSet
66 0 m 1
 415 0 l 1
 415 64 l 1
 163 64 l 1
 411 457 l 1
 411 518 l 1
 75 518 l 1
 75 451 l 1
 311 451 l 1
 66 62 l 1
 66 0 l 1
EndSplineSet
EndChar

StartChar: zero
Encoding: 48 48 500
Width: 610
VWidth: 0
Flags: HW
PickledData: "(dp1
S'org.robofab.postScriptHintData'
p2
(dp3
s."
LayerCount: 2
Fore
SplineSet
310 -11 m 0
 546 -11 555 164 555 311 c 2
 555 386 l 2
 555 535 547 717 310 717 c 0
 73 717 64 535 64 386 c 2
 64 311 l 2
 64 164 74 -11 310 -11 c 0
310 68 m 0
 170 68 163 177 163 302 c 2
 163 398 l 2
 163 523 171 638 310 638 c 0
 449 638 456 523 456 398 c 2
 456 302 l 2
 456 177 450 68 310 68 c 0
EndSplineSet
EndChar
